<svg xmlns="http://www.w3.org/2000/svg" width="25" height="25" viewBox="0 0 25 25" fill="none">
  <path d="M13.337 2.45667H11.6629C11.514 2.45667 11.4396 2.53107 11.4396 2.67988V11.441H3.12556C2.97675 11.441 2.90234 11.5154 2.90234 11.6643V13.3384C2.90234 13.4872 2.97675 13.5616 3.12556 13.5616H11.4396V22.3227C11.4396 22.4715 11.514 22.546 11.6629 22.546H13.337C13.4858 22.546 13.5602 22.4715 13.5602 22.3227V13.5616H21.8756C22.0244 13.5616 22.0988 13.4872 22.0988 13.3384V11.6643C22.0988 11.5154 22.0244 11.441 21.8756 11.441H13.5602V2.67988C13.5602 2.53107 13.4858 2.45667 13.337 2.45667Z" fill="white"/>
</svg>