<svg xmlns="http://www.w3.org/2000/svg" width="20" height="20" viewBox="0 0 20 20" fill="none">
  <path d="M4.32352 15.3551C4.36816 15.3551 4.41281 15.3506 4.45745 15.344L8.21191 14.6855C8.25656 14.6765 8.29897 14.6565 8.33022 14.623L17.7923 5.16091C17.813 5.14026 17.8294 5.11574 17.8406 5.08873C17.8518 5.06173 17.8575 5.03278 17.8575 5.00355C17.8575 4.97431 17.8518 4.94537 17.8406 4.91836C17.8294 4.89136 17.813 4.86683 17.7923 4.84618L14.0825 1.13413C14.04 1.09172 13.9842 1.0694 13.924 1.0694C13.8637 1.0694 13.8079 1.09172 13.7655 1.13413L4.30343 10.5962C4.26995 10.6297 4.24986 10.6698 4.24093 10.7145L3.58245 14.469C3.56074 14.5885 3.56849 14.7116 3.60505 14.8275C3.64162 14.9434 3.70587 15.0487 3.79227 15.1341C3.93959 15.277 4.12486 15.3551 4.32352 15.3551ZM5.82799 11.4623L13.924 3.3685L15.5601 5.00466L7.46415 13.0984L5.47977 13.4489L5.82799 11.4623ZM18.2141 17.2301H1.78557C1.39049 17.2301 1.07129 17.5493 1.07129 17.9444V18.748C1.07129 18.8462 1.15165 18.9265 1.24986 18.9265H18.7499C18.8481 18.9265 18.9284 18.8462 18.9284 18.748V17.9444C18.9284 17.5493 18.6092 17.2301 18.2141 17.2301Z" fill="#111111" fill-opacity="0.7"/>
</svg>