<svg xmlns="http://www.w3.org/2000/svg" width="20" height="20" viewBox="0 0 20 20" fill="none">
  <path d="M15.5132 6.04368C15.5132 2.98564 13.0356 0.507965 9.97753 0.507965C6.91949 0.507965 4.44181 2.98564 4.44181 6.04368C4.44181 7.89189 5.34806 9.53029 6.74092 10.5348C6.73199 10.5392 6.72529 10.5414 6.72083 10.5437C5.72306 10.9656 4.82797 11.5705 4.05788 12.3428C3.29224 13.107 2.68269 14.013 2.26324 15.0102C1.85055 15.9867 1.62782 17.0329 1.60699 18.0928C1.60639 18.1166 1.61057 18.1403 1.61928 18.1625C1.62799 18.1847 1.64105 18.2049 1.65769 18.222C1.67433 18.239 1.69422 18.2526 1.71618 18.2618C1.73814 18.2711 1.76173 18.2758 1.78556 18.2758H3.12261C3.2186 18.2758 3.29895 18.1977 3.30119 18.1017C3.34583 16.3785 4.03556 14.7647 5.25654 13.5414C6.5177 12.2758 8.19181 11.5794 9.97753 11.5794C13.0356 11.5794 15.5132 9.10172 15.5132 6.04368ZM9.97753 9.88297C7.85699 9.88297 6.13824 8.16422 6.13824 6.04368C6.13824 3.92314 7.85699 2.20439 9.97753 2.20439C12.0981 2.20439 13.8168 3.92314 13.8168 6.04368C13.8168 8.16422 12.0981 9.88297 9.97753 9.88297ZM12.3213 14.816H18.2141C18.3123 14.816 18.3927 14.7356 18.3927 14.6374V13.3874C18.3927 13.2892 18.3123 13.2089 18.2141 13.2089H14.2744L15.328 11.8673C15.3523 11.836 15.3656 11.7976 15.3659 11.758C15.3659 11.6598 15.2856 11.5794 15.1873 11.5794H13.5668C13.4574 11.5794 13.3548 11.6307 13.2856 11.7156L11.7565 13.6598C11.6583 13.7848 11.6048 13.941 11.6048 14.1017C11.607 14.4968 11.9262 14.816 12.3213 14.816ZM17.6784 16.2446H11.7856C11.6873 16.2446 11.607 16.3249 11.607 16.4231V17.6731C11.607 17.7714 11.6873 17.8517 11.7856 17.8517H15.7253L14.6717 19.1932C14.6474 19.2245 14.6341 19.263 14.6338 19.3026C14.6338 19.4008 14.7141 19.4812 14.8123 19.4812H16.4329C16.5423 19.4812 16.6449 19.4298 16.7141 19.345L18.2432 17.4008C18.3414 17.2758 18.3949 17.1196 18.3949 16.9589C18.3927 16.5638 18.0735 16.2446 17.6784 16.2446Z" fill="#111111" fill-opacity="0.7"/>
</svg>