<svg xmlns="http://www.w3.org/2000/svg" width="25" height="25" viewBox="0 0 25 25" fill="none">
  <path d="M5.40416 19.1939C5.45996 19.1939 5.51577 19.1884 5.57157 19.18L10.2646 18.3569C10.3205 18.3457 10.3735 18.3206 10.4125 18.2788L22.2401 6.45119C22.266 6.42538 22.2865 6.39472 22.3005 6.36096C22.3145 6.32721 22.3217 6.29102 22.3217 6.25448C22.3217 6.21794 22.3145 6.18176 22.3005 6.148C22.2865 6.11425 22.266 6.08359 22.2401 6.05777L17.6028 1.41771C17.5498 1.36469 17.4801 1.33679 17.4047 1.33679C17.3294 1.33679 17.2596 1.36469 17.2066 1.41771L5.37905 13.2453C5.33719 13.2871 5.31208 13.3373 5.30092 13.3932L4.47782 18.0862C4.45068 18.2357 4.46037 18.3895 4.50607 18.5344C4.55177 18.6793 4.6321 18.8109 4.74009 18.9177C4.92425 19.0963 5.15583 19.1939 5.40416 19.1939ZM7.28474 14.3279L17.4047 4.21068L19.4499 6.25588L9.32994 16.3731L6.84947 16.8111L7.28474 14.3279ZM22.7674 21.5377H2.23172C1.73786 21.5377 1.33887 21.9367 1.33887 22.4305V23.435C1.33887 23.5578 1.43931 23.6582 1.56208 23.6582H23.4371C23.5599 23.6582 23.6603 23.5578 23.6603 23.435V22.4305C23.6603 21.9367 23.2613 21.5377 22.7674 21.5377Z" fill="#111111" fill-opacity="0.7"/>
</svg>