<svg xmlns="http://www.w3.org/2000/svg" width="18" height="19" viewBox="0 0 18 19" fill="none">
  <path d="M9.03405 12.437C9.04882 12.4559 9.06769 12.4711 9.08923 12.4816C9.11078 12.4921 9.13442 12.4976 9.15839 12.4976C9.18235 12.4976 9.206 12.4921 9.22754 12.4816C9.24908 12.4711 9.26795 12.4559 9.28272 12.437L11.4931 9.64049C11.574 9.53787 11.501 9.38591 11.3688 9.38591H9.90636V2.70744C9.90636 2.62061 9.83531 2.54956 9.74848 2.54956H8.56435C8.47752 2.54956 8.40647 2.62061 8.40647 2.70744V9.38393H6.94802C6.81579 9.38393 6.74277 9.5359 6.82369 9.63852L9.03405 12.437ZM16.3815 11.7463H15.1974C15.1106 11.7463 15.0395 11.8173 15.0395 11.9041V14.9434H3.27724V11.9041C3.27724 11.8173 3.20619 11.7463 3.11935 11.7463H1.93523C1.84839 11.7463 1.77734 11.8173 1.77734 11.9041V15.8118C1.77734 16.1611 2.05956 16.4433 2.40888 16.4433H15.9079C16.2572 16.4433 16.5394 16.1611 16.5394 15.8118V11.9041C16.5394 11.8173 16.4684 11.7463 16.3815 11.7463Z" fill="white"/>
</svg>