<svg xmlns="http://www.w3.org/2000/svg" width="20" height="20" viewBox="0 0 20 20" fill="none">
  <path d="M18.3714 17.1547L12.7655 11.5487C13.6354 10.4241 14.106 9.04906 14.106 7.60279C14.106 5.87159 13.4303 4.24831 12.2086 3.02437C10.9868 1.80044 9.35919 1.12695 7.63014 1.12695C5.90109 1.12695 4.27349 1.8026 3.05172 3.02437C1.82778 4.24615 1.1543 5.87159 1.1543 7.60279C1.1543 9.33184 1.82994 10.9594 3.05172 12.1812C4.27349 13.4051 5.89893 14.0786 7.63014 14.0786C9.07641 14.0786 10.4493 13.6081 11.5739 12.7403L17.1798 18.3441C17.1963 18.3605 17.2158 18.3735 17.2373 18.3825C17.2588 18.3914 17.2818 18.3959 17.305 18.3959C17.3283 18.3959 17.3513 18.3914 17.3728 18.3825C17.3943 18.3735 17.4138 18.3605 17.4302 18.3441L18.3714 17.4051C18.3878 17.3886 18.4009 17.3691 18.4098 17.3476C18.4187 17.3261 18.4233 17.3031 18.4233 17.2799C18.4233 17.2566 18.4187 17.2336 18.4098 17.2121C18.4009 17.1906 18.3878 17.1711 18.3714 17.1547ZM11.0494 11.022C10.1341 11.9351 8.92099 12.4381 7.63014 12.4381C6.33929 12.4381 5.12615 11.9351 4.21089 11.022C3.2978 10.1068 2.79484 8.89364 2.79484 7.60279C2.79484 6.31194 3.2978 5.09664 4.21089 4.18355C5.12615 3.27046 6.33929 2.7675 7.63014 2.7675C8.92099 2.7675 10.1363 3.2683 11.0494 4.18355C11.9625 5.0988 12.4654 6.31194 12.4654 7.60279C12.4654 8.89364 11.9625 10.1089 11.0494 11.022Z" fill="#111111" fill-opacity="0.7"/>
</svg>