<svg xmlns="http://www.w3.org/2000/svg" width="50" height="40" viewBox="0 0 50 40" fill="none">
  <g clip-path="url(#clip0_378_1369)">
    <path d="M3.75 0C1.67969 0 0 1.67969 0 3.75V28.75C0 30.8203 1.67969 32.5 3.75 32.5H5C5 36.6406 8.35938 40 12.5 40C16.6406 40 20 36.6406 20 32.5H30C30 36.6406 33.3594 40 37.5 40C41.6406 40 45 36.6406 45 32.5H47.5C48.8828 32.5 50 31.3828 50 30C50 28.6172 48.8828 27.5 47.5 27.5V18.5391C47.5 17.2109 46.9766 15.9375 46.0391 15L40 8.96094C39.0625 8.02344 37.7891 7.5 36.4609 7.5H32.5V3.75C32.5 1.67969 30.8203 0 28.75 0H3.75ZM32.5 12.5H36.4609L42.5 18.5391V20H32.5V12.5ZM8.75 32.5C8.75 31.5054 9.14509 30.5516 9.84835 29.8483C10.5516 29.1451 11.5054 28.75 12.5 28.75C13.4946 28.75 14.4484 29.1451 15.1517 29.8483C15.8549 30.5516 16.25 31.5054 16.25 32.5C16.25 33.4946 15.8549 34.4484 15.1517 35.1516C14.4484 35.8549 13.4946 36.25 12.5 36.25C11.5054 36.25 10.5516 35.8549 9.84835 35.1516C9.14509 34.4484 8.75 33.4946 8.75 32.5ZM37.5 28.75C38.4946 28.75 39.4484 29.1451 40.1516 29.8483C40.8549 30.5516 41.25 31.5054 41.25 32.5C41.25 33.4946 40.8549 34.4484 40.1516 35.1516C39.4484 35.8549 38.4946 36.25 37.5 36.25C36.5054 36.25 35.5516 35.8549 34.8484 35.1516C34.1451 34.4484 33.75 33.4946 33.75 32.5C33.75 31.5054 34.1451 30.5516 34.8484 29.8483C35.5516 29.1451 36.5054 28.75 37.5 28.75Z" fill="#7720E1"/>
  </g>
  <defs>
    <clipPath id="clip0_378_1369">
      <rect width="50" height="40" fill="white"/>
    </clipPath>
  </defs>
</svg>