<svg xmlns="http://www.w3.org/2000/svg" width="35" height="35" viewBox="0 0 35 35" fill="none">
  <path d="M16.0418 27.7083H18.9585V21.6198L21.2918 23.9531L23.3335 21.875L17.5002 16.0416L11.6668 21.875L13.745 23.9166L16.0418 21.6198V27.7083ZM8.75017 32.0833C7.94808 32.0833 7.26121 31.7975 6.68954 31.2258C6.11787 30.6541 5.83253 29.9677 5.8335 29.1666V5.83329C5.8335 5.03121 6.11933 4.34434 6.691 3.77267C7.26266 3.201 7.94905 2.91566 8.75017 2.91663H20.4168L29.1668 11.6666V29.1666C29.1668 29.9687 28.881 30.6556 28.3093 31.2273C27.7377 31.7989 27.0513 32.0843 26.2502 32.0833H8.75017ZM18.9585 13.125H26.2502L18.9585 5.83329V13.125Z" fill="#111111" fill-opacity="0.7"/>
</svg>