<svg xmlns="http://www.w3.org/2000/svg" width="52" height="53" viewBox="0 0 52 53" fill="none">
  <g clip-path="url(#clip0_410_378)">
    <path d="M1.11154 25.8873C1.11033 30.29 2.26073 34.589 4.4482 38.3782L0.902344 51.3247L14.1515 47.8507C17.816 49.8457 21.9218 50.891 26.0942 50.8912H26.1051C39.8789 50.8912 51.091 39.6832 51.0969 25.907C51.0996 19.2314 48.5022 12.9542 43.7832 8.23154C39.065 3.50929 32.79 0.907282 26.1041 0.904236C12.3288 0.904236 1.11743 12.1117 1.11175 25.8873" fill="url(#paint0_linear_410_378)"/>
    <path d="M0.219766 25.8792C0.218345 30.4403 1.40998 34.8931 3.67544 38.8179L0.00244141 52.2285L13.7266 48.63C17.5081 50.6918 21.7656 51.7788 26.0979 51.7804H26.1091C40.377 51.7804 51.9919 40.1692 51.998 25.8999C52.0004 18.9845 49.3096 12.4816 44.4221 7.58972C39.5339 2.69849 33.0344 0.00284351 26.1091 0C11.8387 0 0.225454 11.6096 0.219766 25.8792ZM8.39281 38.142L7.88037 37.3285C5.72621 33.9033 4.58922 29.9452 4.59084 25.8808C4.59552 14.0203 14.248 4.37087 26.1172 4.37087C31.8651 4.37331 37.267 6.614 41.33 10.6794C45.3927 14.7452 47.6283 20.1499 47.6269 25.8982C47.6216 37.7587 37.9689 47.4094 26.1091 47.4094H26.1005C22.2389 47.4073 18.4515 46.3703 15.1486 44.4105L14.3626 43.9444L6.21834 46.0796L8.39281 38.1418V38.142Z" fill="url(#paint1_linear_410_378)"/>
    <path d="M19.6379 15.06C19.1533 13.9829 18.6433 13.9612 18.1824 13.9423C17.805 13.9261 17.3736 13.9273 16.9426 13.9273C16.5112 13.9273 15.8103 14.0896 15.2179 14.7365C14.6248 15.384 12.9536 16.9487 12.9536 20.1312C12.9536 23.3139 15.2717 26.3896 15.5948 26.8216C15.9184 27.2528 20.0699 33.9927 26.6449 36.5856C32.1093 38.7403 33.2213 38.3118 34.4073 38.2037C35.5934 38.0961 38.2346 36.6394 38.7735 35.1289C39.3127 33.6186 39.3127 32.3239 39.151 32.0534C38.9894 31.7839 38.558 31.622 37.9111 31.2987C37.264 30.9751 34.0837 29.4102 33.4908 29.1943C32.8978 28.9786 32.4666 28.8709 32.0352 29.5186C31.6038 30.1653 30.365 31.622 29.9874 32.0534C29.6103 32.4858 29.2327 32.5396 28.586 32.2161C27.9387 31.8915 25.8554 31.2093 23.3838 29.0058C21.4608 27.2911 20.1625 25.1738 19.7851 24.526C19.4078 23.8793 19.7447 23.5288 20.0691 23.2065C20.3597 22.9166 20.7162 22.4511 21.0399 22.0735C21.3625 21.6957 21.4701 21.4262 21.6858 20.9948C21.9017 20.563 21.7937 20.1852 21.6322 19.8617C21.4701 19.5381 20.2131 16.339 19.6379 15.06Z" fill="white"/>
  </g>
  <defs>
    <linearGradient id="paint0_linear_410_378" x1="2510.63" y1="5042.95" x2="2510.63" y2="0.904236" gradientUnits="userSpaceOnUse">
      <stop stop-color="#1FAF38"/>
      <stop offset="1" stop-color="#60D669"/>
    </linearGradient>
    <linearGradient id="paint1_linear_410_378" x1="2599.78" y1="5222.85" x2="2599.78" y2="0" gradientUnits="userSpaceOnUse">
      <stop stop-color="#F9F9F9"/>
      <stop offset="1" stop-color="white"/>
    </linearGradient>
    <clipPath id="clip0_410_378">
      <rect width="52" height="52.4017" fill="white"/>
    </clipPath>
  </defs>
</svg>