<svg xmlns="http://www.w3.org/2000/svg" width="40" height="40" viewBox="0 0 40 40" fill="none">
  <path d="M34.5937 8.99219L30.4335 4.83594C30.1401 4.54119 29.7913 4.30732 29.4072 4.14778C29.023 3.98823 28.6112 3.90615 28.1953 3.90625C27.3476 3.90625 26.5507 4.23828 25.9531 4.83594L21.4765 9.3125C21.1818 9.60596 20.9479 9.95477 20.7883 10.3389C20.6288 10.723 20.5467 11.1349 20.5468 11.5508C20.5468 12.3984 20.8788 13.1953 21.4765 13.793L24.7499 17.0664C23.9837 18.7553 22.9184 20.2917 21.6054 21.6016C20.2957 22.9177 18.7594 23.9869 17.0703 24.7578L13.7968 21.4844C13.5034 21.1896 13.1545 20.9558 12.7704 20.7962C12.3863 20.6367 11.9745 20.5546 11.5585 20.5547C10.7109 20.5547 9.914 20.8867 9.31635 21.4844L4.83588 25.957C4.54076 26.251 4.3067 26.6005 4.14715 26.9853C3.98759 27.3701 3.9057 27.7826 3.90619 28.1992C3.90619 29.0469 4.23822 29.8438 4.83588 30.4414L8.98822 34.5938C9.94135 35.5508 11.2578 36.0938 12.6093 36.0938C12.8945 36.0938 13.1679 36.0703 13.4374 36.0234C18.7031 35.1562 23.9257 32.3555 28.1406 28.1445C32.3515 23.9375 35.1484 18.7188 36.0273 13.4375C36.2929 11.8242 35.7578 10.1641 34.5937 8.99219Z" fill="#111111" fill-opacity="0.7"/>
</svg>