<svg xmlns="http://www.w3.org/2000/svg" width="20" height="20" viewBox="0 0 20 20" fill="none">
  <path d="M17.225 5.275C17.4006 5.45078 17.4992 5.68906 17.4992 5.9375C17.4992 6.18594 17.4006 6.42422 17.225 6.6L8.16252 15.6625C7.98674 15.8381 7.74846 15.9367 7.50002 15.9367C7.25158 15.9367 7.0133 15.8381 6.83752 15.6625L2.77502 11.6C2.60951 11.4222 2.51938 11.1871 2.52358 10.9442C2.52777 10.7013 2.62597 10.4695 2.79752 10.2975C2.96953 10.1259 3.20134 10.0278 3.44423 10.0236C3.68713 10.0194 3.9222 10.1095 4.10002 10.275L7.50002 13.675L15.9 5.275C16.0758 5.09944 16.3141 5.00082 16.5625 5.00082C16.811 5.00082 17.0492 5.09944 17.225 5.275Z" fill="#7720E1"/>
</svg>