<svg xmlns="http://www.w3.org/2000/svg" width="31" height="30" viewBox="0 0 31 30" fill="none">
  <path d="M25.8125 7.5H22.0625V5.15625C22.0625 4.12207 21.2217 3.28125 20.1875 3.28125H10.8125C9.77832 3.28125 8.9375 4.12207 8.9375 5.15625V7.5H5.1875C4.66895 7.5 4.25 7.91895 4.25 8.4375V9.375C4.25 9.50391 4.35547 9.60938 4.48438 9.60938H6.25391L6.97754 24.9316C7.02441 25.9307 7.85059 26.7188 8.84961 26.7188H22.1504C23.1523 26.7188 23.9756 25.9336 24.0225 24.9316L24.7461 9.60938H26.5156C26.6445 9.60938 26.75 9.50391 26.75 9.375V8.4375C26.75 7.91895 26.3311 7.5 25.8125 7.5ZM19.9531 7.5H11.0469V5.39062H19.9531V7.5Z" fill="#111111" fill-opacity="0.7"/>
</svg>