<svg xmlns="http://www.w3.org/2000/svg" width="31" height="30" viewBox="0 0 31 30" fill="none">
  <path d="M26.2812 24.4922H4.71875C4.2002 24.4922 3.78125 24.9111 3.78125 25.4297V26.4844C3.78125 26.6133 3.88672 26.7188 4.01562 26.7188H26.9844C27.1133 26.7188 27.2188 26.6133 27.2188 26.4844V25.4297C27.2188 24.9111 26.7998 24.4922 26.2812 24.4922ZM8.04981 22.0312C8.1084 22.0312 8.16699 22.0254 8.22559 22.0166L13.1533 21.1523C13.2119 21.1406 13.2676 21.1143 13.3086 21.0703L25.7275 8.65137C25.7547 8.62426 25.7762 8.59207 25.7909 8.55663C25.8056 8.52119 25.8132 8.48319 25.8132 8.44482C25.8132 8.40645 25.8056 8.36846 25.7909 8.33302C25.7762 8.29758 25.7547 8.26539 25.7275 8.23828L20.8584 3.36621C20.8027 3.31055 20.7295 3.28125 20.6504 3.28125C20.5713 3.28125 20.498 3.31055 20.4424 3.36621L8.02344 15.7852C7.97949 15.8291 7.95312 15.8818 7.94141 15.9404L7.07715 20.8682C7.04865 21.0251 7.05883 21.1866 7.10682 21.3388C7.1548 21.4909 7.23914 21.629 7.35254 21.7412C7.5459 21.9287 7.78906 22.0312 8.04981 22.0312Z" fill="#111111" fill-opacity="0.7"/>
</svg>