<svg xmlns="http://www.w3.org/2000/svg" width="24" height="24" viewBox="0 0 24 24" fill="none">
  <path d="M22.6504 21.1774L15.6942 14.2211C16.7736 12.8256 17.3575 11.1193 17.3575 9.32469C17.3575 7.17647 16.5192 5.16219 15.0031 3.64344C13.487 2.12469 11.4674 1.28897 9.32183 1.28897C7.1763 1.28897 5.15665 2.12736 3.64058 3.64344C2.12183 5.15951 1.28612 7.17647 1.28612 9.32469C1.28612 11.4702 2.12451 13.4899 3.64058 15.0059C5.15665 16.5247 7.17362 17.3604 9.32183 17.3604C11.1165 17.3604 12.82 16.7765 14.2156 15.6997L21.1718 22.6533C21.1922 22.6737 21.2164 22.6899 21.2431 22.7009C21.2698 22.7119 21.2983 22.7176 21.3272 22.7176C21.356 22.7176 21.3846 22.7119 21.4113 22.7009C21.4379 22.6899 21.4621 22.6737 21.4825 22.6533L22.6504 21.4881C22.6708 21.4677 22.687 21.4435 22.698 21.4168C22.7091 21.3901 22.7148 21.3616 22.7148 21.3327C22.7148 21.3039 22.7091 21.2753 22.698 21.2486C22.687 21.222 22.6708 21.1978 22.6504 21.1774ZM13.5647 13.5675C12.429 14.7006 10.9236 15.3247 9.32183 15.3247C7.72005 15.3247 6.21469 14.7006 5.07897 13.5675C3.94594 12.4318 3.32183 10.9265 3.32183 9.32469C3.32183 7.7229 3.94594 6.21486 5.07897 5.08183C6.21469 3.94879 7.72005 3.32469 9.32183 3.32469C10.9236 3.32469 12.4317 3.94611 13.5647 5.08183C14.6977 6.21754 15.3218 7.7229 15.3218 9.32469C15.3218 10.9265 14.6977 12.4345 13.5647 13.5675Z" fill="#111111" fill-opacity="0.7"/>
</svg>