<svg xmlns="http://www.w3.org/2000/svg" width="31" height="30" viewBox="0 0 31 30" fill="none">
  <g clip-path="url(#clip0_301_27)">
    <path d="M27.075 16.0224H22.3039V13.6368H27.075V16.0224ZM27.075 17.3855H22.3039V19.7711H27.075V17.3855ZM27.075 6.1394H22.3039V8.52493H27.075V6.1394ZM27.075 9.88811H22.3039V12.2736H27.075V9.88811ZM27.075 21.1342H22.3039V23.5198H27.075V21.1342V21.1342ZM30.3704 25.8372C30.2342 26.5461 29.3821 26.5631 28.813 26.587H18.2144V29.6541H16.0981L0.5 26.9277V3.07571L16.1901 0.345947H18.2144V3.06206H28.4484C29.0244 3.08591 29.6582 3.04501 30.1592 3.38919C30.5102 3.89356 30.4762 4.53429 30.5 5.1136L30.4863 22.8553C30.4694 23.847 30.5783 24.8592 30.3704 25.8372ZM12.9968 20.4902C12.0563 18.5818 11.0987 16.6869 10.1615 14.7785C11.0884 12.9212 12.0018 11.0571 12.9117 9.1929C12.1381 9.2304 11.3645 9.2781 10.5943 9.33265C10.0183 10.7333 9.34695 12.0965 8.89713 13.5448C8.47795 12.1783 7.92248 10.8628 7.41471 9.53028C6.66494 9.57118 5.91518 9.61548 5.16547 9.65977C5.95607 11.4047 6.79789 13.1256 7.56465 14.8807C6.66154 16.5847 5.81639 18.3125 4.94053 20.0267C5.68684 20.0574 6.4332 20.0881 7.17951 20.0983C7.71119 18.7419 8.3723 17.4367 8.83578 16.0531C9.25156 17.5389 9.95697 18.9123 10.5363 20.3334C11.3577 20.3914 12.1755 20.4425 12.9968 20.4902ZM28.8746 4.6806H18.2144V6.1394H20.9408V8.52493H18.2144V9.88811H20.9408V12.2736H18.2144V13.6368H20.9408V16.0224H18.2144V17.3855H20.9408V19.7711H18.2144V21.1342H20.9408V23.5198H18.2144V25.0958H28.8746V4.6806Z" fill="#111111" fill-opacity="0.7"/>
  </g>
  <defs>
    <clipPath id="clip0_301_27">
      <rect width="30" height="30" fill="white" transform="translate(0.5)"/>
    </clipPath>
  </defs>
</svg>