<svg xmlns="http://www.w3.org/2000/svg" width="24" height="24" viewBox="0 0 24 24" fill="none">
  <path d="M12.7539 3.14597H11.2272C11.0915 3.14597 11.0236 3.21382 11.0236 3.34953V11.3393H3.4416C3.30589 11.3393 3.23804 11.4071 3.23804 11.5428V13.0695C3.23804 13.2053 3.30589 13.2731 3.4416 13.2731H11.0236V21.2629C11.0236 21.3986 11.0915 21.4664 11.2272 21.4664H12.7539C12.8896 21.4664 12.9575 21.3986 12.9575 21.2629V13.2731H20.5407C20.6764 13.2731 20.7442 13.2053 20.7442 13.0695V11.5428C20.7442 11.4071 20.6764 11.3393 20.5407 11.3393H12.9575V3.34953C12.9575 3.21382 12.8896 3.14597 12.7539 3.14597Z" fill="white" fill-opacity="0.85"/>
</svg>