<svg xmlns="http://www.w3.org/2000/svg" width="130" height="130" viewBox="0 0 130 130" fill="none">
  <g clip-path="url(#clip0_7_813)">
    <path d="M103.974 0H25.9934C11.6376 0 0 11.6376 0 25.9934V103.974C0 118.329 11.6376 129.967 25.9934 129.967H103.974C118.329 129.967 129.967 118.329 129.967 103.974V25.9934C129.967 11.6376 118.329 0 103.974 0Z" fill="#7609E5"/>
    <mask id="mask0_7_813" style="mask-type:luminance" maskUnits="userSpaceOnUse" x="5" y="5" width="120" height="120">
      <path d="M65.0416 5.71864L5.71875 65.0415L65.0416 124.364L124.364 65.0415L65.0416 5.71864Z" fill="white"/>
    </mask>
    <g mask="url(#mask0_7_813)">
      <path d="M65.4941 14.1325C65.3701 14.0512 65.2259 14.0068 65.0782 14.0045C64.9304 14.0022 64.7846 14.0422 64.6587 14.1197C56.2133 19.2467 46.4458 40.8394 46.4422 57.8264C46.43 60.8443 46.6809 63.8582 47.1919 66.8325C44.3405 69.2207 41.9142 72.034 40.6548 75.2398C37.1279 84.3119 42.5283 93.3809 45.1295 97.0042C45.2709 97.2032 45.4565 97.3672 45.6719 97.4825C45.8873 97.5978 46.1265 97.6618 46.3708 97.6689C46.6151 97.6765 46.8576 97.6267 47.0796 97.5247C47.3015 97.4221 47.4966 97.2697 47.6496 97.0793L56.65 85.8475C57.4198 86.6026 58.2278 87.3186 59.0702 87.992C59.6476 88.4673 60.3733 88.7258 61.1213 88.7217L68.9467 88.7126C69.6947 88.7156 70.4198 88.4577 70.9977 87.9829C71.8356 87.3131 72.6395 86.6016 73.4053 85.8506L82.3986 97.0641C82.552 97.2545 82.747 97.4063 82.9689 97.5089C83.1908 97.611 83.4336 97.6602 83.6773 97.6531C83.9216 97.6455 84.1607 97.582 84.376 97.4668C84.5914 97.3515 84.7772 97.188 84.9189 96.9889C87.527 93.3845 92.9403 84.3027 89.3968 75.2469C88.1374 72.0406 85.7299 69.2344 82.8983 66.8523C83.4132 63.8734 83.6682 60.8555 83.6595 57.832C83.7022 40.8313 74.2513 19.6222 65.4941 14.1325ZM65.0421 56.2192C63.4862 56.2197 61.9653 55.7591 60.6714 54.8948C59.3775 54.031 58.3689 52.8026 57.7738 51.365C57.1781 49.928 57.0217 48.3463 57.3254 46.8204C57.6285 45.2944 58.3781 43.8927 59.478 42.7926C60.5779 41.6925 61.98 40.9434 63.506 40.64C65.0319 40.3366 66.6133 40.4925 68.0504 41.0882C69.488 41.6838 70.7164 42.6923 71.5802 43.9861C72.4445 45.2799 72.9051 46.8009 72.9046 48.3567C72.9056 49.3895 72.7025 50.4123 72.3079 51.3665C71.9128 52.3207 71.3339 53.1881 70.6037 53.9183C69.8734 54.6485 69.0061 55.2274 68.0519 55.6225C67.0977 56.0171 66.075 56.2202 65.0421 56.2192Z" fill="white"/>
      <path d="M71.5109 91.8097C71.5119 93.0808 70.7416 94.3473 69.728 95.7854C67.4428 99.0085 62.6313 99.0608 60.3416 95.7819C59.4747 94.5372 58.5536 92.4993 58.5536 91.8042C58.5551 91.6533 58.5094 91.5066 58.4225 91.3837C58.3352 91.2608 58.2118 91.1684 58.0696 91.1196C57.9274 91.0709 57.773 91.0683 57.6293 91.112C57.4851 91.1557 57.3587 91.244 57.2678 91.3639C55.916 93.0925 55.1812 95.2233 55.1807 97.4175C55.1832 102.868 65.0424 113.241 65.0424 113.241C65.0424 113.241 74.9072 102.862 74.9046 97.4119C74.9087 95.2151 74.1729 93.0808 72.8155 91.3532C72.3742 90.8261 71.4957 91.1272 71.5109 91.8097Z" fill="white"/>
    </g>
  </g>
  <defs>
    <clipPath id="clip0_7_813">
      <rect width="130" height="130" fill="white"/>
    </clipPath>
  </defs>
</svg>