<svg xmlns="http://www.w3.org/2000/svg" xmlns:xlink="http://www.w3.org/1999/xlink" viewBox="0 0 1500 1500" width="1500" height="1500" preserveAspectRatio="xMidYMid meet" style="width: 100%; height: 100%; transform: translate3d(0px, 0px, 0px); content-visibility: visible;"><defs><clipPath id="__lottie_element_5664"><rect width="1500" height="1500" x="0" y="0"/></clipPath></defs><g clip-path="url(#__lottie_element_5664)"><g transform="matrix(0.9925462007522583,0.12186934798955917,-0.12186934798955917,0.9925462007522583,125.17888641357422,-97.5755615234375)" opacity="1" style="display: block;"><g opacity="1" transform="matrix(1,0,0,1,763.5499877929688,231.64999389648438)"><path fill="rgb(66,66,65)" fill-opacity="1" d=" M-14.25,-79.25 C-25.25,-76.94999694824219 -35.54999923706055,-72.44999694824219 -43.75,-66.3499984741211 C-55.45000076293945,-57.25 -63.650001525878906,-43.650001525878906 -66.25,-29.049999237060547 C-69.25,-12.649999618530273 -68.8499984741211,4.25 -67.44999694824219,20.850000381469727 C-66.05000305175781,36.75 -63.650001525878906,63.75 -45.150001525878906,69.3499984741211 C-25.450000762939453,75.44999694824219 -5.550000190734863,81.3499984741211 14.850000381469727,82.94999694824219 C20.950000762939453,83.44999694824219 27.25,83.44999694824219 33.150001525878906,81.3499984741211 C40.650001525878906,78.55000305175781 46.54999923706055,72.44999694824219 50.04999923706055,65.6500015258789 C53.54999923706055,58.849998474121094 55.45000076293945,51.150001525878906 57.04999923706055,43.849998474121094 C60.349998474121094,28.850000381469727 63.150001525878906,13.649999618530273 65.44999694824219,-1.649999976158142 C69.25,-26.450000762939453 66.3499984741211,-54.849998474121094 43.650001525878906,-70.3499984741211 C28.149999618530273,-80.8499984741211 5.849999904632568,-83.44999694824219 -14.25,-79.25z"/></g></g><g transform="matrix(1,0,0,1,66,-6)" opacity="1" style="display: block;"><g opacity="1" transform="matrix(1,0,0,1,825.4500122070312,1315)"><path fill="rgb(66,66,65)" fill-opacity="1" d=" M8.949999809265137,-29.599000930786133 C8.949999809265137,-29.599000930786133 4.449999809265137,-8.699999809265137 4.449999809265137,-8.699999809265137 C4.449999809265137,-8.699999809265137 -51.54999923706055,5.401000022888184 -45.04999923706055,34.70100021362305 C-45.04999923706055,34.70100021362305 12.149999618530273,38.9010009765625 50.8489990234375,28.799999237060547 C50.8489990234375,28.799999237060547 51.54999923706055,-21.100000381469727 48.25,-38.9010009765625 C48.25,-38.9010009765625 8.949999809265137,-29.599000930786133 8.949999809265137,-29.599000930786133z"/></g><g opacity="1" transform="matrix(1,0,0,1,694.6500244140625,1315)"><path fill="rgb(66,66,65)" fill-opacity="1" d=" M8.949999809265137,-29.599000930786133 C8.949999809265137,-29.599000930786133 4.449999809265137,-8.699999809265137 4.449999809265137,-8.699999809265137 C4.449999809265137,-8.699999809265137 -51.54999923706055,5.401000022888184 -45.04999923706055,34.70100021362305 C-45.04999923706055,34.70100021362305 12.149999618530273,38.9010009765625 50.849998474121094,28.799999237060547 C50.849998474121094,28.799999237060547 51.54999923706055,-21.100000381469727 48.25,-38.9010009765625 C48.25,-38.9010009765625 8.949999809265137,-29.599000930786133 8.949999809265137,-29.599000930786133z"/></g><g opacity="1" transform="matrix(1,0,0,1,768.5499877929688,973.3499755859375)"><path fill="rgb(66,66,65)" fill-opacity="1" d=" M33.95000076293945,109.94999694824219 C38.650001525878906,137.64999389648438 59.45000076293945,316.95001220703125 59.05099868774414,316.95001220703125 C75.94999694824219,312.95001220703125 92.8499984741211,309.45001220703125 109.94999694824219,305.95001220703125 C111.1500015258789,159.25 115.1500015258789,54.25 106.1500015258789,-100.25 C101.6500015258789,-179.0500030517578 94.6500015258789,-253.75 78.94999694824219,-318.45001220703125 C78.75,-318.6499938964844 -26.049999237060547,-303.95001220703125 -104.3499984741211,-313.25 C-115.1500015258789,-143.0500030517578 -83.05000305175781,134.64999389648438 -71.55000305175781,314.6499938964844 C-54.25,315.8500061035156 -37.04999923706055,317.25 -19.950000762939453,318.6499938964844 C-17.149999618530273,219.05099487304688 -7.550000190734863,-90.3499984741211 -4.050000190734863,-188.5500030517578 C2.5510001182556152,-155.5500030517578 26.450000762939453,73.94999694824219 33.95000076293945,109.94999694824219z"/></g></g><g transform="matrix(0.9945219159126282,0.10452846437692642,-0.10452846437692642,0.9945219159126282,52.30662536621094,-76.104736328125)" opacity="1" style="display: block;"><g opacity="1" transform="matrix(1,0,0,1,652.75,422.8999938964844)"><path fill="rgb(240,239,239)" fill-opacity="1" d=" M101.94999694824219,-30.5 C101.94999694824219,-30.5 -61.150001525878906,-61.400001525878906 -61.150001525878906,-61.400001525878906 C-78.75,-64.19999694824219 -95.3499984741211,-52.5 -98.6500015258789,-34.900001525878906 C-101.94999694824219,-17.299999237060547 -93.05000305175781,0.699999988079071 -75.6500015258789,3.700000047683716 C-75.6500015258789,3.700000047683716 78.05000305175781,64.19999694824219 78.05000305175781,64.19999694824219 C78.05000305175781,64.19999694824219 101.94999694824219,-30.5 101.94999694824219,-30.5z"/></g></g><g transform="matrix(0.9743700623512268,0.22495105862617493,-0.22495105862617493,0.9743700623512268,124.66487121582031,-197.16307067871094)" opacity="1" style="display: block;"><g opacity="1" transform="matrix(1,0,0,1,981.2000122070312,499.95001220703125)"><path fill="rgb(240,239,239)" fill-opacity="1" d=" M-41.599998474121094,-91.05000305175781 C-41.599998474121094,-91.05000305175781 82.0999984741211,24.950000762939453 85.69999694824219,44.650001525878906 C89.4000015258789,64.3499984741211 76.5999984741211,91.05000305175781 40,78.8499984741211 C3.5,66.6500015258789 -64.30000305175781,13.649999618530273 -64.30000305175781,13.649999618530273 C-64.30000305175781,13.649999618530273 -89.4000015258789,-41.849998474121094 -41.599998474121094,-91.05000305175781z"/></g></g><g transform="matrix(0.9993908405303955,0.03489949554204941,-0.03489949554204941,0.9993908405303955,92.63153076171875,-31.71771240234375)" opacity="1" style="display: block;"><g opacity="1" transform="matrix(1,0,0,1,749.5999755859375,556.75)"><path fill="rgb(238,237,237)" fill-opacity="1" d=" M111.69999694824219,170.85000610351562 C111.69999694824219,170.85000610351562 48.70000076293945,172.25 48.70000076293945,172.25 C7.000999927520752,175.25 -5.401000022888184,171.5500030517578 -47.20000076293945,168.0500030517578 C-47.20000076293945,168.0500030517578 -91,163.85000610351562 -91,163.85000610351562 C-91,163.85000610351562 -121.19999694824219,-76.8499984741211 -92.4010009765625,-145.5500030517578 C-94.3010025024414,-146.4499969482422 -73.4000015258789,-157.25 -52.29999923706055,-164.75 C-50.400001525878906,-165.25 -48.80099868774414,-165.9499969482422 -47.10100173950195,-166.64999389648438 C-45.20000076293945,-167.14999389648438 -43.30099868774414,-167.85000610351562 -41.70000076293945,-168.25 C-39.80099868774414,-168.75 -38.19900131225586,-169.14999389648438 -36.29999923706055,-169.64999389648438 C-33.5,-170.35000610351562 -30.900999069213867,-170.85000610351562 -28.60099983215332,-171.0500030517578 C-28.10099983215332,-171.0500030517578 -27.700000762939453,-171.25 -27.400999069213867,-171.25 C-24.60099983215332,-171.4499969482422 -22.200000762939453,-171.75 -20.10099983215332,-171.4499969482422 C-20.10099983215332,-171.4499969482422 -20.301000595092773,-170.75 -20.60099983215332,-169.5500030517578 C-20.801000595092773,-167.64999389648438 -21.5,-164.35000610351562 -21.799999237060547,-160.4499969482422 C-21.799999237060547,-160.4499969482422 -21.799999237060547,-159.9499969482422 -21.799999237060547,-159.9499969482422 C-22,-158.5500030517578 -22,-157.14999389648438 -22,-155.75 C-22,-155.75 -22,-153.14999389648438 -22,-153.14999389648438 C-22.198999404907227,-139.35000610351562 -18.700000762939453,-124.3499984741211 -0.4009999930858612,-135.14999389648438 C1.1990000009536743,-136.0500030517578 2.8989999294281006,-137.25 4.800000190734863,-138.64999389648438 C9,-141.64999389648438 13.699000358581543,-145.9499969482422 19.299999237060547,-151.5500030517578 C19.799999237060547,-152.0500030517578 20.500999450683594,-152.75 21.200000762939453,-153.4499969482422 C26.399999618530273,-158.85000610351562 32.19900131225586,-165.14999389648438 38.5,-172.9499969482422 C39.19900131225586,-173.64999389648438 39.69900131225586,-174.35000610351562 40.39899826049805,-175.25 C40.39899826049805,-175.25 44.89899826049805,-173.35000610351562 44.89899826049805,-173.35000610351562 C44.89899826049805,-173.35000610351562 45.0989990234375,-173.35000610351562 45.0989990234375,-173.35000610351562 C45.0989990234375,-173.35000610351562 47.39899826049805,-172.4499969482422 47.39899826049805,-172.4499969482422 C47.39899826049805,-172.4499969482422 61.20000076293945,-167.0500030517578 61.20000076293945,-167.0500030517578 C61.20000076293945,-167.0500030517578 66.5989990234375,-164.9499969482422 66.5989990234375,-164.9499969482422 C66.5989990234375,-164.9499969482422 69.89900207519531,-163.5500030517578 69.89900207519531,-163.5500030517578 C69.89900207519531,-163.5500030517578 121.19999694824219,-142.64999389648438 121.19999694824219,-142.64999389648438 C121.19999694824219,-142.64999389648438 112.80000305175781,-128.5500030517578 111.5989990234375,-28.75 C110.30000305175781,70.94999694824219 111.69999694824219,170.85000610351562 111.69999694824219,170.85000610351562z"/></g><g opacity="1" transform="matrix(1,0,0,1,753.75,360.70001220703125)"><path fill="rgb(195,190,190)" fill-opacity="1" d=" M-41.75,19.799999237060547 C-41.75,19.799999237060547 -39.45000076293945,-6.5 -16.450000762939453,-17 C8.649999618530273,-28.5 46.849998474121094,-25.700000762939453 46.54899978637695,-5.699999809265137 C46.54899978637695,-5.699999809265137 46.349998474121094,22.399999618530273 46.349998474121094,22.399999618530273 C46.349998474121094,22.399999618530273 -36.349998474121094,28.5 -41.75,26.200000762939453 C-46.849998474121094,24.399999618530273 -41.75,19.799999237060547 -41.75,19.799999237060547z"/></g><g opacity="1" transform="matrix(1,0,0,1,767,346.6000061035156)"><path fill="rgb(177,134,111)" fill-opacity="1" d=" M21,36.70000076293945 C16.799999237060547,42.79999923706055 10.5,47 4.10099983215332,50.5 C1.2999999523162842,51.900001525878906 -1.5,53.29999923706055 -4.599999904632568,53.79999923706055 C-7.199999809265137,54.29999923706055 -10,53.79999923706055 -12.600000381469727,53.29999923706055 C-20.600000381469727,52.099998474121094 -29.200000762939453,50.29999923706055 -34.20000076293945,44.20000076293945 C-35.79999923706055,42.099998474121094 -37.70000076293945,38.29999923706055 -36.79999923706055,35.5 C-36.099998474121094,33.400001525878906 -34.20000076293945,32.70000076293945 -33.5,30.600000381469727 C-32.099998474121094,27.600000381469727 -32.099998474121094,23.299999237060547 -31.399999618530273,20.299999237060547 C-30,14 -28.799999237060547,7.599999904632568 -27.399999618530273,1.5 C-27.399999618530273,1.5 -19.700000762939453,-35.29999923706055 -19.700000762939453,-35.29999923706055 C-19.700000762939453,-35.29999923706055 37.70000076293945,-54.29999923706055 37.70000076293945,-54.29999923706055 C37.70000076293945,-54.29999923706055 29.700000762939453,-6.699999809265137 29.700000762939453,-6.699999809265137 C28.299999237060547,2.4000000953674316 26.700000762939453,11.300000190734863 25.200000762939453,20.5 C24.299999237060547,25.399999618530273 24.299999237060547,31.299999237060547 21.700000762939453,35.5 C21.700000762939453,35.70000076293945 21.200000762939453,36.20000076293945 21,36.70000076293945z"/></g><g opacity="1" transform="matrix(1,0,0,1,772.7000122070312,321.1499938964844)"><path fill="rgb(152,113,93)" fill-opacity="1" d=" M32.599998474121094,-28.850000381469727 C32.599998474121094,-28.850000381469727 24.600000381469727,18.75 24.600000381469727,18.75 C13.300000190734863,25.049999237060547 -0.5,28.850000381469727 -14.798999786376953,28.850000381469727 C-20.899999618530273,28.850000381469727 -27,28.149999618530273 -32.599998474121094,26.950000762939453 C-32.599998474121094,26.950000762939453 -24.899999618530273,-9.850000381469727 -24.899999618530273,-9.850000381469727 C-24.899999618530273,-9.850000381469727 32.599998474121094,-28.850000381469727 32.599998474121094,-28.850000381469727z"/></g><g opacity="1" transform="matrix(1,0,0,1,755.5159912109375,408.1499938964844)"><path fill="rgb(4,4,4)" fill-opacity="0.2" d=" M63.8849983215332,-14.850000381469727 C60.084999084472656,2.049999952316284 51.8849983215332,19.149999618530273 40.48500061035156,31.049999237060547 C37.8849983215332,29.149999618530273 35.084999084472656,28.25 32.284000396728516,27.549999237060547 C30.885000228881836,27.350000381469727 29.485000610351562,27.049999237060547 27.784000396728516,27.049999237060547 C20.784000396728516,26.549999237060547 13.284000396728516,28.25 6.184999942779541,29.149999618530273 C6.184999942779541,29.149999618530273 5.985000133514404,29.149999618530273 5.985000133514404,29.149999618530273 C4.585000038146973,29.350000381469727 2.984999895095825,29.350000381469727 1.284000039100647,29.649999618530273 C1.284000039100647,29.649999618530273 1.0850000381469727,29.649999618530273 1.0850000381469727,29.649999618530273 C-6.215000152587891,30.149999618530273 -14.614999771118164,29.450000762939453 -23.014999389648438,28.25 C-23.21500015258789,28.25 -23.71500015258789,28.049999237060547 -23.915000915527344,28.049999237060547 C-24.114999771118164,28.049999237060547 -24.614999771118164,27.850000381469727 -24.815000534057617,27.850000381469727 C-39.314998626708984,25.549999237060547 -54.1150016784668,21.049999237060547 -63.71500015258789,15.149999618530273 C-64.61499786376953,3.450000047683716 -61.814998626708984,-5.449999809265137 -57.6150016784668,-16.450000762939453 C-55.71500015258789,-16.950000762939453 -54.1150016784668,-17.649999618530273 -52.415000915527344,-18.350000381469727 C-50.51499938964844,-18.850000381469727 -48.6150016784668,-19.549999237060547 -47.01499938964844,-19.950000762939453 C-45.1150016784668,-20.450000762939453 -43.51499938964844,-20.850000381469727 -41.6150016784668,-21.350000381469727 C-38.814998626708984,-22.049999237060547 -36.21500015258789,-22.549999237060547 -33.915000915527344,-22.75 C-33.415000915527344,-22.75 -33.01499938964844,-22.950000762939453 -32.71500015258789,-22.950000762939453 C-32.51499938964844,-22.450000762939453 -32.21500015258789,-21.75 -31.815000534057617,-21.049999237060547 C-30.614999771118164,-18.75 -29.514999389648438,-16.350000381469727 -28.014999389648438,-13.75 C-27.815000534057617,-13.25 -27.315000534057617,-12.550000190734863 -27.114999771118164,-12.149999618530273 C-26.915000915527344,-11.949999809265137 -26.915000915527344,-11.949999809265137 -26.915000915527344,-11.649999618530273 C-25.71500015258789,-9.75 -24.614999771118164,-8.149999618530273 -23.415000915527344,-6.25 C-18.71500015258789,-0.15000000596046448 -12.914999961853027,5.449999809265137 -5.414999961853027,8.25 C-4.216000080108643,8.75 -3.115000009536743,9.149999618530273 -1.9149999618530273,9.449999809265137 C-1.4149999618530273,9.649999618530273 -1.0149999856948853,9.649999618530273 -0.7160000205039978,9.649999618530273 C6.085000038146973,10.850000381469727 11.6850004196167,6.650000095367432 18.084999084472656,-0.15000000596046448 C18.985000610351562,-1.0499999523162842 19.985000610351562,-2.049999952316284 20.684999465942383,-2.950000047683716 C26.084999084472656,-9.050000190734863 31.985000610351562,-17.049999237060547 39.185001373291016,-24.75 C39.185001373291016,-24.75 39.185001373291016,-24.950000762939453 39.185001373291016,-24.950000762939453 C41.084999084472656,-26.850000381469727 42.685001373291016,-28.75 44.584999084472656,-30.549999237060547 C44.784000396728516,-30.75 45.084999084472656,-31.049999237060547 45.084999084472656,-31.049999237060547 C45.084999084472656,-31.049999237060547 55.185001373291016,-27.049999237060547 55.185001373291016,-27.049999237060547 C55.685001373291016,-24.950000762939453 55.8849983215332,-22.549999237060547 56.084999084472656,-20.25 C56.084999084472656,-20.25 55.8849983215332,-19.549999237060547 55.3849983215332,-18.149999618530273 C55.3849983215332,-18.149999618530273 60.784000396728516,-16.049999237060547 60.784000396728516,-16.049999237060547 C60.784000396728516,-16.049999237060547 63.8849983215332,-14.850000381469727 63.8849983215332,-14.850000381469727z"/></g><g opacity="1" transform="matrix(1,0,0,1,751.2000122070312,416.3999938964844)"><path fill="rgb(4,4,4)" fill-opacity="1" d=" M-23.200000762939453,-20 C-23.200000762939453,-20 -26,-13.199999809265137 -26,-13.199999809265137 C-28.799999237060547,-7.099999904632568 -28.799999237060547,-0.10000000149011612 -26.5,6 C-26.5,6 -20.600000381469727,20.5 -20.600000381469727,20.5 C-20.600000381469727,20.5 -8.399999618530273,17.200000762939453 5.400000095367432,21.399999618530273 C19.200000762939453,25.600000381469727 28.799999237060547,-9.300000190734863 28.799999237060547,-9.300000190734863 C28.799999237060547,-9.300000190734863 -8.699999809265137,-25.600000381469727 -23.200000762939453,-20z"/></g><g opacity="1" transform="matrix(1,0,0,1,713.3499755859375,564.9000244140625)"><path fill="rgb(4,4,4)" fill-opacity="1" d=" M16.950000762939453,-128 C16.950000762939453,-128 -29.25,95.4000015258789 -48.650001525878906,97 C-48.650001525878906,97 -7.349999904632568,135.1999969482422 -7.349999904632568,135.1999969482422 C-7.349999904632568,135.1999969482422 32.25,105.19999694824219 32.25,105.19999694824219 C32.25,105.19999694824219 48.650001525878906,-77.5999984741211 42.75,-127.0999984741211 C42.95000076293945,-127 26.850000381469727,-135.1999969482422 16.950000762939453,-128z"/></g><g opacity="1" transform="matrix(1,0,0,1,758.6500244140625,390.95001220703125)"><path fill="rgb(238,237,237)" fill-opacity="1" d=" M52.95000076293945,-2.950000047683716 C52.95000076293945,-2.950000047683716 52.75,-2.25 52.25,-0.8500000238418579 C49.45000076293945,7.150000095367432 38.8489990234375,37.150001525878906 29.049999237060547,45.04999923706055 C27.64900016784668,46.25 26.049999237060547,46.95000076293945 24.349000930786133,46.95000076293945 C24.349000930786133,46.95000076293945 24.549999237060547,46.04999923706055 24.549999237060547,44.650001525878906 C24.75,40.150001525878906 24.549999237060547,30.549999237060547 19.14900016784668,22.850000381469727 C17.950000762939453,20.950000762939453 16.349000930786133,19.350000381469727 14.64900016784668,17.649999618530273 C13.449999809265137,16.450000762939453 11.848999977111816,15.550000190734863 10.449999809265137,14.649999618530273 C5.25,11.649999618530273 -1.75,9.75 -11.151000022888184,9.75 C-17.25,9.75 -22.450000762939453,10.449999809265137 -26.850000381469727,11.649999618530273 C-28.25,12.149999618530273 -29.650999069213867,12.550000190734863 -30.850000381469727,12.850000381469727 C-32.25,13.350000381469727 -33.45000076293945,14.050000190734863 -34.6510009765625,14.449999809265137 C-49.45000076293945,22.450000762939453 -47.54999923706055,37.849998474121094 -47.349998474121094,39.54999923706055 C-47.849998474121094,37.650001525878906 -52.95000076293945,18.450000762939453 -50.849998474121094,-1.9500000476837158 C-50.6510009765625,-4.550000190734863 -50.1510009765625,-7.150000095367432 -49.6510009765625,-9.649999618530273 C-46.6510009765625,-24.649999618530273 -38.849998474121094,-39.150001525878906 -21.75,-46.95000076293945 C-21.75,-46.95000076293945 -21.75,-46.75 -21.75,-46.75 C-22.25,-45.349998474121094 -28.049999237060547,-27.049999237060547 -25.75,-12.050000190734863 C-25.25,-9.050000190734863 -24.350000381469727,-5.949999809265137 -23.150999069213867,-3.3499999046325684 C-22.25,-1.4500000476837158 -21.049999237060547,0.15000000596046448 -19.650999069213867,1.850000023841858 C-17.549999237060547,3.950000047683716 -14.949999809265137,5.349999904632568 -11.949999809265137,6.050000190734863 C-11.949999809265137,6.050000190734863 -11.75,6.050000190734863 -11.75,6.050000190734863 C-11.550000190734863,6.25 -11.25,6.25 -10.850000381469727,6.25 C-10.651000022888184,6.25 -10.651000022888184,6.449999809265137 -10.350000381469727,6.449999809265137 C-0.75,7.849999904632568 12.14900016784668,3.450000047683716 22.450000762939453,-5.949999809265137 C26.450000762939453,-9.449999809265137 30.14900016784668,-13.949999809265137 32.95000076293945,-18.850000381469727 C36.75,-25.450000762939453 39.25,-33.150001525878906 39.54999923706055,-41.849998474121094 C39.54999923706055,-41.849998474121094 40.04999923706055,-40.95000076293945 40.75,-39.54999923706055 C43.3489990234375,-34.650001525878906 49.14899826049805,-22.25 51.54999923706055,-9.050000190734863 C52.25,-7.449999809265137 52.54999923706055,-5.150000095367432 52.95000076293945,-2.950000047683716z"/></g><g opacity="1" transform="matrix(1,0,0,1,393.1260070800781,263.25)"><path fill="rgb(2,2,2)" fill-opacity="1" d=" M393.1260070800781,263.25 C393.1260070800781,263.25 393.4739990234375,263.25 393.4739990234375,263.25 C393.4739990234375,263.25 393.1260070800781,263.25 393.1260070800781,263.25z M-393.1260070800781,-263.25 C-393.1260070800781,-263.25 1106.8740234375,-263.25 1106.8740234375,-263.25 C1106.8740234375,-263.25 1106.8740234375,1236.75 1106.8740234375,1236.75 C1106.8740234375,1236.75 -393.1260070800781,1236.75 -393.1260070800781,1236.75 C-393.1260070800781,1236.75 -393.1260070800781,-263.25 -393.1260070800781,-263.25z M-393.1260070800781,1236.75 C-393.1260070800781,1236.75 1106.8740234375,1236.75 1106.8740234375,1236.75 C1106.8740234375,1236.75 1106.8740234375,-263.25 1106.8740234375,-263.25 C1106.8740234375,-263.25 -393.1260070800781,-263.25 -393.1260070800781,-263.25 C-393.1260070800781,-263.25 -393.1260070800781,1236.75 -393.1260070800781,1236.75z M393.4739990234375,263.25 C393.4739990234375,263.25 393.27398681640625,263.25 393.27398681640625,263.25 C393.27398681640625,263.25 393.4739990234375,263.25 393.4739990234375,263.25z"/><g opacity="1" transform="matrix(1,0,0,1,0,0)"/></g></g><g transform="matrix(0.9925462007522583,0.12186934798955917,-0.12186934798955917,0.9925462007522583,125.17888641357422,-97.5755615234375)" opacity="1" style="display: block;"><g opacity="1" transform="matrix(1,0,0,1,751,282.54998779296875)"><path fill="rgb(177,134,111)" fill-opacity="1" d=" M49.599998474121094,-72.25 C49.599998474121094,-72.25 41.20000076293945,-32.849998474121094 57.599998474121094,5.550000190734863 C57.599998474121094,5.550000190734863 49.400001525878906,71.6500015258789 -3.5999999046325684,76.55000305175781 C-4.800000190734863,76.75 -6.199999809265137,76.75 -7.400000095367432,76.3499984741211 C-17,75.1500015258789 -55.900001525878906,67.6500015258789 -57.599998474121094,24.049999237060547 C-57.599998474121094,24.049999237060547 -48.900001525878906,-76.75 -48.900001525878906,-76.75 C-48.900001525878906,-76.75 49.599998474121094,-72.25 49.599998474121094,-72.25z"/></g><g opacity="1" transform="matrix(1,0,0,1,741.9000244140625,331.54998779296875)"><path fill="rgb(66,66,65)" fill-opacity="1" d=" M26.600000381469727,10.949999809265137 C26.600000381469727,6.25 26.399999618530273,1.5499999523162842 26.399999618530273,-3.3499999046325684 C26.399999618530273,-9.25 26.899999618530273,-18.850000381469727 22.899999618530273,-23.549999237060547 C20.299999237060547,-26.549999237060547 14.699999809265137,-27.549999237060547 10.899999618530273,-28.25 C2.5,-29.850000381469727 -10.399999618530273,-31.049999237060547 -17.200000762939453,-25.25 C-20.200000762939453,-22.450000762939453 -21.399999618530273,-18.25 -22.399999618530273,-13.949999809265137 C-23.799999237060547,-5.949999809265137 -22.98900032043457,0.23199999332427979 -22.48900032043457,8.432000160217285 C-21.788999557495117,18.531999588012695 -17,22.850000381469727 -8.399999618530273,25.649999618530273 C6,31.049999237060547 26.600000381469727,29.649999618530273 26.600000381469727,10.949999809265137z M16.299999237060547,-2.6500000953674316 C16.100000381469727,-1.4500000476837158 15.800000190734863,-0.05000000074505806 15.100000381469727,1.149999976158142 C13.899999618530273,3.049999952316284 11.800000190734863,3.950000047683716 9.699999809265137,4.650000095367432 C4.5,6.25 -1.100000023841858,6.25 -6,4.650000095367432 C-7.400000095367432,4.150000095367432 -9,3.450000047683716 -10.199999809265137,2.549999952316284 C-12.800000190734863,0.44999998807907104 -13.199999809265137,-3.3499999046325684 -13.699999809265137,-6.550000190734863 C-13.899999618530273,-8.649999618530273 -14.199999809265137,-11.050000190734863 -14.600000381469727,-13.149999618530273 C-16.200000762939453,-25.850000381469727 3.700000047683716,-20.149999618530273 11.399999618530273,-19.950000762939453 C12.800000190734863,-19.950000762939453 14.399999618530273,-19.75 15.199999809265137,-18.549999237060547 C15.399999618530273,-18.049999237060547 15.399999618530273,-17.649999618530273 15.699999809265137,-17.149999618530273 C16.5,-12.550000190734863 17,-7.550000190734863 16.299999237060547,-2.6500000953674316z"/></g><g opacity="1" transform="matrix(1,0,0,1,717.4500122070312,249.14999389648438)"><path fill="rgb(6,6,6)" fill-opacity="1" d=" M11.25,7.75 C10.350000381469727,7.75 9.350000381469727,7.25 8.649999618530273,6.550000190734863 C4.449999809265137,1.350000023841858 -4.050000190734863,-0.25 -9.649999618530273,3.049999952316284 C-11.25,3.950000047683716 -13.449999809265137,3.549999952316284 -14.350000381469727,1.850000023841858 C-15.25,0.15000000596046448 -14.850000381469727,-1.9500000476837158 -13.149999618530273,-2.8499999046325684 C-4.449999809265137,-7.75 7.75,-5.650000095367432 14.050000190734863,2.049999952316284 C15.25,3.450000047683716 14.949999809265137,5.550000190734863 13.550000190734863,6.949999809265137 C12.850000381469727,7.550000190734863 11.949999809265137,7.75 11.25,7.75z"/></g><g opacity="1" transform="matrix(1,0,0,1,776.4500122070312,253.35000610351562)"><path fill="rgb(6,6,6)" fill-opacity="1" d=" M-12.848999977111816,7.150000095367432 C-13.74899959564209,7.150000095367432 -14.75,6.650000095367432 -15.451000213623047,5.949999809265137 C-16.650999069213867,4.550000190734863 -16.650999069213867,2.450000047683716 -15.25,1.0499999523162842 C-7.25,-6.25 5.348999977111816,-7.150000095367432 14.548999786376953,-1.0499999523162842 C16.149999618530273,-0.15000000596046448 16.650999069213867,2.25 15.451000213623047,3.6500000953674316 C14.550000190734863,5.25 12.149999618530273,5.75 10.75,4.550000190734863 C4.150000095367432,0.05000000074505806 -4.949999809265137,0.75 -10.548999786376953,6.150000095367432 C-11.24899959564209,6.650000095367432 -11.949999809265137,7.150000095367432 -12.848999977111816,7.150000095367432z"/></g><g opacity="1" transform="matrix(1,0,0,1,815,300.70001220703125)"><path fill="rgb(177,134,111)" fill-opacity="1" d=" M-18.399999618530273,16.200000762939453 C-17.500999450683594,16.700000762939453 -16.500999450683594,17.399999618530273 -15.600000381469727,18.100000381469727 C-9.50100040435791,21.100000381469727 -1.5010000467300415,20 4.298999786376953,16.899999618530273 C9.899999618530273,13.899999618530273 13.399999618530273,8.5 15.600000381469727,3.299999952316284 C17.200000762939453,-0.20000000298023224 18.399999618530273,-4.199999809265137 18.200000762939453,-8 C17.999000549316406,-11.800000190734863 15.899999618530273,-15.699999809265137 12.100000381469727,-18.100000381469727 C8.298999786376953,-20.399999618530273 1.9989999532699585,-21.100000381469727 -2.000999927520752,-19 C-4.599999904632568,-17.600000381469727 -6.201000213623047,-15.5 -7.599999904632568,-13.399999618530273 C-9.899999618530273,-10.399999618530273 -12.300000190734863,-6.400000095367432 -10.600000381469727,-3.0999999046325684"/></g><g opacity="1" transform="matrix(1,0,0,1,814.7999877929688,299.25)"><path fill="rgb(152,113,93)" fill-opacity="1" d=" M-8.300000190734863,2.6500000953674316 C-8.800000190734863,7.550000190734863 -2.9010000228881836,11.350000381469727 1.7999999523162842,6.150000095367432 C2.999000072479248,4.75 3.9000000953674316,2.6500000953674316 2.700000047683716,1.4500000476837158 C1.8009999990463257,0.05000000074505806 -1.7999999523162842,-0.44999998807907104 -2.5,1.25 C-2.6989998817443848,-3.950000047683716 2.1989998817443848,-9.050000190734863 8.800000190734863,-10.449999809265137 C7.598999977111816,-11.350000381469727 5.800000190734863,-10.949999809265137 4.300000190734863,-10.649999618530273 C-2.000999927520752,-8.350000381469727 -7.599999904632568,-2.950000047683716 -8.300000190734863,2.6500000953674316z"/></g></g><g transform="matrix(0.5536931753158569,-0.023429280146956444,0.023429280146956444,0.5536931753158569,364.4137878417969,153.5916290283203)" opacity="1" style="display: block;"><g opacity="1" transform="matrix(1,0,0,1,813.3330078125,319.8089904785156)"><path fill="rgb(244,134,125)" fill-opacity="1" d=" M10.050000190734863,-4.449999809265137 C10.050000190734863,-4.449999809265137 9.350000381469727,-0.44999998807907104 7.25,2.549999952316284 C5.349999904632568,5.650000095367432 2.049999952316284,7.75 -2.8499999046325684,6.349999904632568 C-4.949999809265137,5.349999904632568 -6.349999904632568,4.25 -7.25,2.549999952316284 C-10.050000190734863,-1.850000023841858 -8.449999809265137,-7.75 -8.449999809265137,-7.75 C1.5499999523162842,-5.849999904632568 10.050000190734863,-4.449999809265137 10.050000190734863,-4.449999809265137z"/></g></g><g transform="matrix(0.9906623959541321,0.13633805513381958,-0.13633805513381958,0.9906623959541321,797.1770629882812,826.1513671875)" opacity="1" style="display: block;"><g opacity="1" transform="matrix(1,0,0,1,-13.142000198364258,-561.5960083007812)"><path fill="rgb(0,0,0)" fill-opacity="1" d=" M0,-5.6539998054504395 C2.267204999923706,-5.6539998054504395 4.107999801635742,-3.1204423904418945 4.107999801635742,0 C4.107999801635742,3.1204423904418945 2.267204999923706,5.6539998054504395 0,5.6539998054504395 C-2.267204999923706,5.6539998054504395 -4.107999801635742,3.1204423904418945 -4.107999801635742,0 C-4.107999801635742,-3.1204423904418945 -2.267204999923706,-5.6539998054504395 0,-5.6539998054504395z"/><path stroke-linecap="butt" stroke-linejoin="miter" fill-opacity="0" stroke-miterlimit="4" stroke="rgb(0,0,0)" stroke-opacity="1" stroke-width="2" d=" M0,-5.6539998054504395 C2.267204999923706,-5.6539998054504395 4.107999801635742,-3.1204423904418945 4.107999801635742,0 C4.107999801635742,3.1204423904418945 2.267204999923706,5.6539998054504395 0,5.6539998054504395 C-2.267204999923706,5.6539998054504395 -4.107999801635742,3.1204423904418945 -4.107999801635742,0 C-4.107999801635742,-3.1204423904418945 -2.267204999923706,-5.6539998054504395 0,-5.6539998054504395z"/></g></g><g transform="matrix(0.9928473234176636,0.11939175426959991,-0.11939175426959991,0.9928473234176636,746.6661376953125,814.8663940429688)" opacity="1" style="display: block;"><g opacity="1" transform="matrix(1,0,0,1,-13.142000198364258,-561.5960083007812)"><path fill="rgb(0,0,0)" fill-opacity="1" d=" M0,-5.6539998054504395 C2.267204999923706,-5.6539998054504395 4.107999801635742,-3.1204423904418945 4.107999801635742,0 C4.107999801635742,3.1204423904418945 2.267204999923706,5.6539998054504395 0,5.6539998054504395 C-2.267204999923706,5.6539998054504395 -4.107999801635742,3.1204423904418945 -4.107999801635742,0 C-4.107999801635742,-3.1204423904418945 -2.267204999923706,-5.6539998054504395 0,-5.6539998054504395z"/><path stroke-linecap="butt" stroke-linejoin="miter" fill-opacity="0" stroke-miterlimit="4" stroke="rgb(0,0,0)" stroke-opacity="1" stroke-width="2" d=" M0,-5.6539998054504395 C2.267204999923706,-5.6539998054504395 4.107999801635742,-3.1204423904418945 4.107999801635742,0 C4.107999801635742,3.1204423904418945 2.267204999923706,5.6539998054504395 0,5.6539998054504395 C-2.267204999923706,5.6539998054504395 -4.107999801635742,3.1204423904418945 -4.107999801635742,0 C-4.107999801635742,-3.1204423904418945 -2.267204999923706,-5.6539998054504395 0,-5.6539998054504395z"/></g></g><g transform="matrix(1.1385496854782104,0.13979631662368774,-0.12186934798955917,0.9925462007522583,669.2064208984375,722.9397583007812)" opacity="1" style="display: block;"><g opacity="1" transform="matrix(1,0,0,1,-4,-44)"><path stroke-linecap="butt" stroke-linejoin="miter" fill-opacity="0" stroke-miterlimit="4" stroke="rgb(114,68,68)" stroke-opacity="1" stroke-width="2" d=" M88.5,-413.5 C88.5,-413.5 80.5,-416 82.5,-420.5 C84.5,-425 94,-438 94,-438"/></g></g><g transform="matrix(0.9779961705207825,0.20862285792827606,-0.20862285792827606,0.9779961705207825,99.18333435058594,-126.1689224243164)" opacity="1" style="display: block;"><g opacity="1" transform="matrix(1,0,0,1,545.3499755859375,335.45001220703125)"><path fill="rgb(240,239,239)" fill-opacity="1" d=" M-37.849998474121094,-88.55000305175781 C-37.849998474121094,-88.55000305175781 53.04999923706055,15.949999809265137 53.04999923706055,15.949999809265137 C77.44999694824219,47.349998474121094 64.94999694824219,68.6500015258789 51.650001525878906,78.25 C51.45000076293945,78.44999694824219 50.650001525878906,78.94999694824219 50.45000076293945,79.44999694824219 C36.650001525878906,88.55000305175781 17.850000381469727,85.3499984741211 8.550000190734863,71.44999694824219 C-7.849999904632568,57.150001525878906 -46.75,-10.050000190734863 -47.25,-11.550000190734863 C-47.25,-11.550000190734863 -77.44999694824219,-72.6500015258789 -77.44999694824219,-72.6500015258789 C-77.44999694824219,-72.6500015258789 -37.849998474121094,-88.55000305175781 -37.849998474121094,-88.55000305175781z"/></g></g><g transform="matrix(0.9779961705207825,0.20862285792827606,-0.20862285792827606,0.9779961705207825,99.18333435058594,-126.1689224243164)" opacity="1" style="display: block;"><g opacity="1" transform="matrix(1,0,0,1,470,213.89999389648438)"><path fill="rgb(177,134,111)" fill-opacity="1" d=" M38.20000076293945,44.5 C38.20000076293945,44.5 7.699999809265137,56.70000076293945 7.699999809265137,56.70000076293945 C7.699999809265137,56.70000076293945 3.5,50.20000076293945 3.5,50.20000076293945 C-2.5999999046325684,45 -8,39.400001525878906 -12.600000381469727,32.599998474121094 C-20.799999237060547,20.700000762939453 -38.20000076293945,-17.799999237060547 -37,-23.600000381469727 C-35.599998474121094,-29.200000762939453 -29.700000762939453,-25.899999618530273 -29.700000762939453,-25.899999618530273 C-29.899999618530273,-26.100000381469727 -29.899999618530273,-26.399999618530273 -30.200000762939453,-26.899999618530273 C-30.700000762939453,-27.899999618530273 -31.200000762939453,-29 -31.600000381469727,-30 C-32.79999923706055,-33.29999923706055 -33.5,-36.5 -33,-39.79999923706055 C-31.600000381469727,-45.900001525878906 -24.799999237060547,-41.70000076293945 -24.799999237060547,-41.70000076293945 C-27.100000381469727,-44 -27.600000381469727,-47.29999923706055 -26.700000762939453,-50.79999923706055 C-24.799999237060547,-55.5 -15.699999809265137,-48.5 -15.699999809265137,-48.5 C-14.300000190734863,-56.70000076293945 -9.600000381469727,-51.79999923706055 -7.5,-50.79999923706055 C-0.20000000298023224,-48.900001525878906 18.299999237060547,-12.600000381469727 18.299999237060547,-12.600000381469727 C18.299999237060547,-12.600000381469727 6.099999904632568,-34.900001525878906 9.800000190734863,-38.20000076293945 C13.100000381469727,-41 18,-30.200000762939453 25,-25.299999237060547 C29.200000762939453,-22.5 30.600000381469727,-13.800000190734863 32,-8.899999618530273 C34.29999923706055,-0.699999988079071 35.70000076293945,-0.20000000298023224 37.599998474121094,11.5 C38.20000076293945,17.799999237060547 30.200000762939453,30.700000762939453 38.20000076293945,44.5z"/></g><g opacity="1" transform="matrix(1,0,0,1,459.2590026855469,177.39999389648438)"><path fill="rgb(4,4,4)" fill-opacity="1" d=" M-8.458999633789062,-14.399999618530273 C-8.458999633789062,-14.399999618530273 6.741000175476074,8.100000381469727 8.440999984741211,14.399999618530273 C8.640999794006348,14.399999618530273 7.440999984741211,3.200000047683716 -8.458999633789062,-14.399999618530273z"/></g><g opacity="1" transform="matrix(1,0,0,1,449.6499938964844,182.8000030517578)"><path fill="rgb(4,4,4)" fill-opacity="1" d=" M-8.449999809265137,-14.399999618530273 C-8.449999809265137,-14.399999618530273 6.75,8.100000381469727 8.449999809265137,14.399999618530273 C8.149999618530273,14.199999809265137 6.949999809265137,3 -8.449999809265137,-14.399999618530273z"/></g><g opacity="1" transform="matrix(1,0,0,1,442.25,194.39999389648438)"><path fill="rgb(4,4,4)" fill-opacity="1" d=" M7.050000190734863,12.699999809265137 C6.050000190734863,8.5 -0.949999988079071,-2.5 -5.650000095367432,-9.600000381469727 C-6.150000095367432,-10.600000381469727 -6.650000095367432,-11.699999809265137 -7.050000190734863,-12.699999809265137 C5.949999809265137,2.5999999046325684 7.050000190734863,12.699999809265137 7.050000190734863,12.699999809265137z"/></g><g opacity="1" transform="matrix(1,0,0,1,480.2030029296875,219.8300018310547)"><path fill="rgb(4,4,4)" fill-opacity="1" d=" M1.496999979019165,-14.630000114440918 C-2.503000020980835,-5.53000020980835 -4.103000164031982,4.369999885559082 -3.4030001163482666,14.170000076293945 C-3.203000068664551,15.569999694824219 -0.8029999732971191,15.569999694824219 -1.1030000448226929,14.170000076293945 C-2.1029999256134033,4.570000171661377 -0.40299999713897705,-4.829999923706055 3.296999931335449,-13.529999732971191 C4.296999931335449,-14.630000114440918 2.197000026702881,-16.030000686645508 1.496999979019165,-14.630000114440918z"/></g><g opacity="1" transform="matrix(1,0,0,1,466.2409973144531,208.0800018310547)"><path fill="rgb(4,4,4)" fill-opacity="1" d=" M9.159000396728516,-7.980000019073486 C2.1589999198913574,-3.9800000190734863 -4.440999984741211,0.9200000166893005 -10.541000366210938,6.320000171661377 C-11.741000175476074,7.320000171661377 -10.041000366210938,8.920000076293945 -8.940999984741211,7.920000076293945 C-3.0409998893737793,2.7200000286102295 3.4590001106262207,-1.8799999952316284 10.258999824523926,-5.880000114440918 C11.758999824523926,-6.880000114440918 10.559000015258789,-8.979999542236328 9.159000396728516,-7.980000019073486z"/></g></g><g transform="matrix(0.9961947202682495,-0.08715574443340302,0.08715574443340302,0.9961947202682495,-72.05260467529297,112.00883483886719)" opacity="1" style="display: block;"><g opacity="1" transform="matrix(1,0,0,1,913.5,653.4500122070312)"><path fill="rgb(177,134,111)" fill-opacity="1" d=" M33.79999923706055,-43.54999923706055 C33.79999923706055,-43.54999923706055 52.099998474121094,-16.850000381469727 52.099998474121094,-16.850000381469727 C52.099998474121094,-16.850000381469727 46.5,-11.25 46.5,-11.25 C42.79999923706055,-4.25 38.29999923706055,2.1500000953674316 32.900001525878906,7.949999809265137 C23.100000381469727,18.25 -10.199999809265137,43.54999923706055 -16.100000381469727,43.349998474121094 C-22,43.150001525878906 -19.799999237060547,37.04999923706055 -19.799999237060547,37.04999923706055 C-20,37.25 -20.299999237060547,37.54999923706055 -20.5,37.54999923706055 C-21.5,38.25 -22.399999618530273,38.95000076293945 -23.100000381469727,39.45000076293945 C-25.899999618530273,41.349998474121094 -29,42.75 -32.20000076293945,42.95000076293945 C-38.5,42.95000076293945 -35.70000076293945,35.45000076293945 -35.70000076293945,35.45000076293945 C-37.599998474121094,38.25 -40.599998474121094,39.45000076293945 -43.900001525878906,39.150001525878906 C-48.79999923706055,38.150001525878906 -43.900001525878906,28.149999618530273 -43.900001525878906,28.149999618530273 C-52.099998474121094,28.649999618530273 -48.29999923706055,22.950000762939453 -47.900001525878906,20.850000381469727 C-47.70000076293945,13.350000381469727 -16.5,-12.25 -16.5,-12.25 C-16.5,-12.25 -35.5,4.349999904632568 -39.5,1.350000023841858 C-43,-1.25 -33.400001525878906,-8.25 -30.399999618530273,-15.949999809265137 C-28.5,-20.850000381469727 -20.600000381469727,-23.950000762939453 -16.100000381469727,-26.25 C-8.600000381469727,-30.25 -8.600000381469727,-31.850000381469727 2.4000000953674316,-35.849998474121094 C8,-37.650001525878906 22.399999618530273,-32.95000076293945 33.79999923706055,-43.54999923706055z"/></g><g opacity="1" transform="matrix(1,0,0,1,879.6510009765625,674.1500244140625)"><path fill="rgb(4,4,4)" fill-opacity="1" d=" M-12.050999641418457,11.25 C-12.050999641418457,11.25 6.249000072479248,-8.449999809265137 12.048999786376953,-11.25 C12.14900016784668,-11.25 1.5490000247955322,-7.550000190734863 -12.050999641418457,11.25z"/></g><g opacity="1" transform="matrix(1,0,0,1,886.9500122070312,682.5499877929688)"><path fill="rgb(4,4,4)" fill-opacity="1" d=" M-12.050000190734863,11.25 C-12.050000190734863,11.25 6.25,-8.449999809265137 12.050000190734863,-11.25 C12.050000190734863,-11.25 1.350000023841858,-7.449999809265137 -12.050000190734863,11.25z"/></g><g opacity="1" transform="matrix(1,0,0,1,899.6500244140625,686.7999877929688)"><path fill="rgb(4,4,4)" fill-opacity="1" d=" M10.649999618530273,-9.399999618530273 C6.949999809265137,-7.5 -2.25,1.399999976158142 -8.050000190734863,7.5 C-9.050000190734863,8.199999809265137 -9.949999809265137,8.899999618530273 -10.649999618530273,9.399999618530273 C1.25,-6.099999904632568 10.649999618530273,-9.399999618530273 10.649999618530273,-9.399999618530273z"/></g></g><g transform="matrix(0.9961947202682495,-0.08715574443340302,0.08715574443340302,0.9961947202682495,-72.05260467529297,112.00883483886719)" opacity="1" style="display: block;"><g opacity="1" transform="matrix(1,0,0,1,1010.3499755859375,568.4500122070312)"><path fill="rgb(240,239,239)" fill-opacity="1" d=" M-79.44999694824219,45.95000076293945 C-79.44999694824219,45.95000076293945 -60.45000076293945,80.1500015258789 -50.849998474121094,82.44999694824219 C-41.04999923706055,85.05000305175781 79.44999694824219,18.75 55.25,-26.950000762939453 C24.850000381469727,-85.05000305175781 -79.44999694824219,45.95000076293945 -79.44999694824219,45.95000076293945z"/></g></g></g></svg>