<svg xmlns="http://www.w3.org/2000/svg" width="27" height="28" viewBox="0 0 27 28" fill="none">
  <path d="M14.4833 3.2218H12.6867C12.527 3.2218 12.4471 3.30165 12.4471 3.46135V12.8636H3.5247C3.36501 12.8636 3.28516 12.9434 3.28516 13.1031V14.8997C3.28516 15.0594 3.36501 15.1393 3.5247 15.1393H12.4471V24.5415C12.4471 24.7012 12.527 24.781 12.6867 24.781H14.4833C14.643 24.781 14.7228 24.7012 14.7228 24.5415V15.1393H23.6467C23.8064 15.1393 23.8862 15.0594 23.8862 14.8997V13.1031C23.8862 12.9434 23.8064 12.8636 23.6467 12.8636H14.7228V3.46135C14.7228 3.30165 14.643 3.2218 14.4833 3.2218Z" fill="white" fill-opacity="0.85"/>
</svg>