<svg xmlns="http://www.w3.org/2000/svg" width="36" height="36" viewBox="0 0 36 36" fill="none">
  <path d="M32.4952 11.8969C31.7065 10.0144 30.559 8.30332 29.1167 6.85905C27.6788 5.41226 25.9707 4.26197 24.0894 3.4735C22.1622 2.66185 20.0915 2.2458 18.0003 2.25006H17.93C15.803 2.26061 13.7464 2.68248 11.8093 3.51217C9.94415 4.30872 8.25208 5.46105 6.82766 6.90475C5.39936 8.34578 4.26502 10.0509 3.48781 11.9251C2.68103 13.874 2.27223 15.9646 2.28547 18.0739C2.29601 20.5137 2.87961 22.936 3.96945 25.1016V30.4454C3.96945 31.3383 4.69367 32.0626 5.58312 32.0626H10.9198C13.0956 33.1604 15.4965 33.7381 17.9335 33.7501H18.0073C20.1097 33.7501 22.1452 33.3423 24.0648 32.5442C25.9365 31.7651 27.6383 30.6283 29.0745 29.1973C30.523 27.7594 31.662 26.079 32.4601 24.2051C33.2862 22.2645 33.7081 20.2008 33.7187 18.0704C33.7257 15.9294 33.3109 13.8516 32.4952 11.8969ZM10.9831 19.6876C10.055 19.6876 9.29914 18.9317 9.29914 18.0001C9.29914 17.0684 10.055 16.3126 10.9831 16.3126C11.9112 16.3126 12.6671 17.0684 12.6671 18.0001C12.6671 18.9317 11.9148 19.6876 10.9831 19.6876ZM18.0003 19.6876C17.0722 19.6876 16.3163 18.9317 16.3163 18.0001C16.3163 17.0684 17.0722 16.3126 18.0003 16.3126C18.9284 16.3126 19.6843 17.0684 19.6843 18.0001C19.6843 18.9317 18.9284 19.6876 18.0003 19.6876ZM25.0175 19.6876C24.0894 19.6876 23.3335 18.9317 23.3335 18.0001C23.3335 17.0684 24.0894 16.3126 25.0175 16.3126C25.9456 16.3126 26.7015 17.0684 26.7015 18.0001C26.7015 18.9317 25.9456 19.6876 25.0175 19.6876Z" fill="#7720E1"/>
</svg>