<svg xmlns="http://www.w3.org/2000/svg" width="36" height="36" viewBox="0 0 36 36" fill="none">
  <path d="M31.4298 16.2424C32.5161 16.2424 32.9696 14.8467 32.0872 14.2034L18.661 4.43694C18.4693 4.29647 18.2378 4.22073 18.0001 4.22073C17.7624 4.22073 17.5309 4.29647 17.3392 4.43694L3.91299 14.2034C3.03056 14.8432 3.48408 16.2424 4.57392 16.2424H6.7501V29.3909H4.21885C4.06416 29.3909 3.9376 29.5174 3.9376 29.6721V31.5002C3.9376 31.6549 4.06416 31.7815 4.21885 31.7815H31.7813C31.936 31.7815 32.0626 31.6549 32.0626 31.5002V29.6721C32.0626 29.5174 31.936 29.3909 31.7813 29.3909H29.2501V16.2424H31.4298ZM13.3946 29.3909H9.28134V16.2424H13.3946V29.3909ZM20.0392 29.3909H15.9259V16.2424H20.0392V29.3909ZM26.7188 29.3909H22.5704V16.2424H26.7188V29.3909Z" fill="#111111" fill-opacity="0.85"/>
</svg>