<svg xmlns="http://www.w3.org/2000/svg" width="55" height="55" viewBox="0 0 55 55" fill="none">
  <path d="M27.5 3.4375C14.2119 3.4375 3.4375 14.2119 3.4375 27.5C3.4375 40.7881 14.2119 51.5625 27.5 51.5625C40.7881 51.5625 51.5625 40.7881 51.5625 27.5C51.5625 14.2119 40.7881 3.4375 27.5 3.4375ZM28.6978 39.166L28.7085 40.8687C28.7085 41.105 28.5151 41.3037 28.2788 41.3037H26.7534C26.5171 41.3037 26.3237 41.1104 26.3237 40.874V39.1875C21.5542 38.833 19.3091 36.1152 19.0674 33.1611C19.0459 32.9087 19.2446 32.6938 19.4971 32.6938H21.9785C22.188 32.6938 22.3706 32.8442 22.4028 33.0483C22.6768 34.751 24.0034 36.0239 26.3828 36.3408V28.6763L25.0562 28.3379C22.2471 27.6665 19.5723 25.9155 19.5723 22.2847C19.5723 18.3691 22.5479 16.2637 26.3506 15.8931V14.1206C26.3506 13.8843 26.5439 13.6909 26.7803 13.6909H28.2896C28.5259 13.6909 28.7192 13.8843 28.7192 14.1206V15.877C32.3984 16.2476 35.1592 18.396 35.4814 21.7422C35.5083 21.9946 35.3096 22.2148 35.0518 22.2148H32.6401C32.4253 22.2148 32.2427 22.0537 32.2158 21.8442C32.001 20.2759 30.7441 18.9976 28.6978 18.7183V25.9316L30.062 26.2485C33.5425 27.1079 35.9111 28.7729 35.9111 32.5005C35.9111 36.5449 32.9033 38.8008 28.6978 39.166ZM22.9131 22.0376C22.9131 23.4019 23.7563 24.46 25.5718 25.1152C25.8242 25.2173 26.0767 25.2979 26.3774 25.3838V18.7236C24.3955 18.9761 22.9131 20.0879 22.9131 22.0376ZM29.1704 29.2993C29.02 29.2671 28.8696 29.2295 28.6978 29.1812V36.3623C30.9858 36.1582 32.5649 34.9014 32.5649 32.7959C32.5649 31.147 31.7109 30.0728 29.1704 29.2993Z" fill="white"/>
</svg>