<svg xmlns="http://www.w3.org/2000/svg" width="55" height="55" viewBox="0 0 55 55" fill="none">
  <path d="M27.5 4.58334C14.8958 4.58334 4.58331 14.8958 4.58331 27.5C4.58331 40.1042 14.8958 50.4167 27.5 50.4167C40.1041 50.4167 50.4166 40.1042 50.4166 27.5C50.4166 14.8958 40.1041 4.58334 27.5 4.58334ZM20.2354 16.1563C22.4812 16.1563 24.2916 17.9667 24.2916 20.2354C24.2916 22.4813 22.4812 24.2917 20.2354 24.2917C17.9666 24.2917 16.1562 22.4813 16.1562 20.2354C16.1562 17.9667 17.9666 16.1563 20.2354 16.1563ZM34.8791 38.9583C32.6333 38.9583 30.8229 37.125 30.8229 34.8792C30.8229 32.6333 32.6333 30.8229 34.8791 30.8229C37.125 30.8229 38.9583 32.6333 38.9583 34.8792C38.9583 37.125 37.125 38.9583 34.8791 38.9583ZM19.4791 39.0271L16.0416 35.5896L35.5896 16.0417L39.0271 19.4792L19.4791 39.0271Z" fill="#F8F8F8"/>
</svg>