<svg xmlns="http://www.w3.org/2000/svg" width="50" height="50" viewBox="0 0 50 50" fill="none">
  <path d="M42.1436 25.3175H24.6826V7.85656C24.6826 7.64171 24.5068 7.46593 24.292 7.46593H23.0225C20.4604 7.46331 17.923 7.96663 15.5559 8.94699C13.1887 9.92735 11.0385 11.3655 9.22852 13.1788C7.44645 14.9554 6.02687 17.0615 5.04883 19.38C4.0332 21.7872 3.51562 24.3409 3.51562 26.9777C3.51562 29.6144 4.0332 32.1632 5.04883 34.5704C6.03027 36.8898 7.43652 38.9796 9.22852 40.7716C11.0205 42.5636 13.1055 43.9698 15.4297 44.9513C17.8327 45.9708 20.417 46.4939 23.0273 46.4894C25.5894 46.492 28.1268 45.9887 30.4939 45.0083C32.8611 44.028 35.0113 42.5898 36.8213 40.7765C38.6133 38.9845 40.0195 36.8995 41.001 34.5753C42.0204 32.1723 42.5436 29.588 42.5391 26.9777V25.7081C42.5342 25.4933 42.3584 25.3175 42.1436 25.3175ZM46.4355 22.6075L46.3086 21.2306C45.8936 16.7384 43.9014 12.5001 40.6885 9.30187C37.4786 6.09466 33.2487 4.11013 28.7305 3.69152L27.3486 3.56456C27.1191 3.54503 26.9238 3.72081 26.9238 3.95031V22.6857C26.9238 22.9005 27.0996 23.0763 27.3145 23.0763L46.0449 23.0275C46.2744 23.0226 46.4551 22.8321 46.4355 22.6075Z" fill="white"/>
</svg>