<svg xmlns="http://www.w3.org/2000/svg" width="39" height="21" viewBox="0 0 39 21" fill="none">
  <g clip-path="url(#clip0_13_882)">
    <path fill-rule="evenodd" clip-rule="evenodd" d="M36.3883 10.2752C36.3883 10.1124 36.263 9.95633 36.04 9.84123C35.817 9.72613 35.5145 9.66146 35.1991 9.66146L7.15174 9.66146L14.6363 5.79971C14.8596 5.68446 14.985 5.52815 14.985 5.36517C14.985 5.20218 14.8596 5.04587 14.6363 4.93063C14.413 4.81538 14.1101 4.75064 13.7944 4.75064C13.4786 4.75064 13.1757 4.81538 12.9524 4.93063L3.4392 9.84068C3.32846 9.89769 3.2406 9.96542 3.18065 10.04C3.1207 10.1146 3.08984 10.1945 3.08984 10.2752C3.08984 10.356 3.1207 10.4359 3.18065 10.5105C3.2406 10.585 3.32846 10.6527 3.4392 10.7098L12.9524 15.6198C13.063 15.6769 13.1942 15.7221 13.3387 15.753C13.4832 15.7839 13.638 15.7998 13.7944 15.7998C14.1101 15.7998 14.413 15.7351 14.6363 15.6198C14.8596 15.5046 14.985 15.3483 14.985 15.1853C14.985 15.0223 14.8596 14.866 14.6363 14.7507L7.15174 10.889L35.1991 10.889C35.5145 10.889 35.817 10.8243 36.04 10.7092C36.263 10.5941 36.3883 10.438 36.3883 10.2752Z" fill="#111111"/>
  </g>
  <defs>
    <clipPath id="clip0_13_882">
      <rect width="19.6402" height="38.0529" fill="white" transform="matrix(0 -1 1 0 0.713867 20.0952)"/>
    </clipPath>
  </defs>
</svg>