<svg width="45" height="44" viewBox="0 0 45 44" fill="none" xmlns="http://www.w3.org/2000/svg">
<g id="emojione-v1:flag-for-morocco" clip-path="url(#clip0_212_851)">
<path id="Vector" d="M44.6875 29.5625C44.6875 33.7391 42.3686 37.125 37.8125 37.125H7.5625C3.00644 37.125 0.6875 33.7391 0.6875 29.5625V14.4375C0.6875 10.2609 3.00644 6.875 7.5625 6.875H37.8125C42.3686 6.875 44.6875 10.2609 44.6875 14.4375V29.5625Z" fill="#EC1C24"/>
<g id="Group">
<path id="Vector_2" fill-rule="evenodd" clip-rule="evenodd" d="M30.4974 19.4219C28.7195 19.4219 26.9403 19.4267 25.161 19.4267C25.1177 19.4267 25.0716 19.4219 25.0283 19.4267C24.9575 19.4301 24.9211 19.4019 24.9108 19.3318C24.9025 19.2988 24.8901 19.2679 24.8778 19.2342C24.3161 17.3326 23.7523 15.4275 23.1879 13.5224C23.1741 13.4716 23.1631 13.4214 23.1281 13.3671C23.0806 13.4269 23.0738 13.4949 23.0559 13.5506C22.4997 15.4399 21.9449 17.3264 21.386 19.2156C21.3172 19.4514 21.3571 19.4212 21.1158 19.4212C19.3255 19.426 17.538 19.426 15.7464 19.4281C15.6866 19.4281 15.624 19.4164 15.5566 19.4432C15.6 19.5078 15.6536 19.5394 15.7017 19.5766C17.1599 20.7446 18.6195 21.9113 20.079 23.0821C20.211 23.1866 20.211 23.1866 20.165 23.3482C19.8838 24.3059 19.6019 25.2581 19.3241 26.213C19.032 27.2023 18.7453 28.1902 18.4538 29.1782C18.44 29.2036 18.4373 29.227 18.4606 29.2504C18.5074 29.2153 18.5624 29.1789 18.6098 29.1431C20.055 27.9833 21.5001 26.8276 22.9452 25.6712C22.9851 25.6362 23.0256 25.6094 23.0655 25.5743C23.1033 25.5399 23.1418 25.5351 23.1851 25.5695C23.2147 25.5977 23.247 25.6211 23.2759 25.6451L27.6436 29.1342C27.6958 29.1768 27.7467 29.2153 27.8106 29.2641C27.8189 29.1816 27.7962 29.1328 27.7797 29.0771C27.4449 27.9372 27.1073 26.7974 26.7698 25.6589C26.5415 24.8834 26.3146 24.1065 26.0823 23.3317C26.0506 23.2306 26.0596 23.1577 26.1545 23.1021C26.1778 23.0904 26.1978 23.0684 26.2218 23.0512C27.6697 21.8893 29.119 20.7267 30.5661 19.5635C30.6101 19.5284 30.67 19.5023 30.6968 19.4205C30.6205 19.4226 30.5606 19.4226 30.4981 19.4226M23.1178 17.8179C23.1803 17.9389 23.1989 18.0317 23.2243 18.1211C23.3426 18.5116 23.4608 18.9014 23.5729 19.2906C23.6114 19.4191 23.6059 19.4219 23.4746 19.4267C23.2113 19.4287 22.9445 19.4267 22.651 19.4267C22.7946 18.8863 22.959 18.3686 23.1178 17.8179ZM19.4011 20.8367C19.4383 20.7969 19.461 20.8003 19.4816 20.8003C19.9174 20.7965 20.3533 20.7945 20.7892 20.7941C20.9178 20.7941 20.9191 20.8003 20.8875 20.9165C20.8023 21.2087 20.7156 21.4988 20.6242 21.8164C20.2041 21.4816 19.8026 21.1626 19.4011 20.8367ZM20.9178 25.5874C20.8463 25.5887 20.8525 25.5441 20.8662 25.5007C20.9872 25.0277 21.1295 24.5664 21.2718 24.1024C21.2746 24.0934 21.2849 24.0845 21.3021 24.0618C21.5523 24.2598 21.804 24.4626 22.0721 24.6744C21.6775 24.9886 21.2973 25.2862 20.9178 25.5874ZM23.2202 23.7545C23.159 23.8033 23.115 23.8164 23.0435 23.76C22.6255 23.4176 22.1993 23.0787 21.7737 22.7397C21.7118 22.6909 21.6933 22.6483 21.7146 22.5699C21.883 22.0151 22.0439 21.4624 22.2055 20.9076C22.2302 20.8244 22.2701 20.7907 22.3622 20.7907C22.8758 20.7948 23.3921 20.7934 23.9077 20.7934C23.9758 20.7934 24.0225 20.8037 24.0438 20.8807C24.2109 21.4541 24.378 22.0234 24.5464 22.5919C24.5519 22.6098 24.5533 22.6263 24.5581 22.6428C24.5581 22.6978 24.5127 22.7164 24.479 22.7432C24.2136 22.9556 23.949 23.1694 23.6822 23.3805C23.5275 23.5063 23.3715 23.6266 23.2202 23.7545ZM25.3494 25.586C24.9692 25.2862 24.587 24.9886 24.1889 24.6778C24.4556 24.464 24.7038 24.2653 24.9479 24.068C24.9692 24.0824 24.9809 24.0852 24.9871 24.0934C25.1301 24.5616 25.2738 25.0277 25.3975 25.5056C25.4161 25.5523 25.4188 25.5887 25.3494 25.586ZM26.8454 20.8333C26.4989 21.1386 26.1283 21.4149 25.7729 21.7071C25.7337 21.7408 25.6993 21.7807 25.6395 21.791C25.5701 21.6253 25.5336 21.4472 25.4786 21.2767C25.4397 21.1532 25.403 21.029 25.3686 20.9041C25.3439 20.8072 25.3521 20.7941 25.4539 20.7941C25.7488 20.79 26.041 20.7927 26.3346 20.7927H26.8433C26.8323 20.8202 26.842 20.7927 26.8502 20.8154C26.8502 20.8202 26.8502 20.8278 26.8454 20.8333Z" fill="black"/>
<path id="Vector_3" fill-rule="evenodd" clip-rule="evenodd" d="M18.4562 29.1775C18.461 29.2029 18.461 29.2263 18.4631 29.2497C18.4198 29.2449 18.4198 29.2325 18.4562 29.1775Z" fill="#570007"/>
<g id="Group_2">
<path id="Vector_4" fill-rule="evenodd" clip-rule="evenodd" d="M30.3666 19.547C30.3398 19.6219 30.2868 19.6481 30.2442 19.6831C28.8836 20.7728 27.5258 21.8646 26.1639 22.9577C26.1543 22.9632 26.1453 22.9701 26.1364 22.9769C26.025 23.0622 26.014 23.0574 25.9728 22.9185C25.8882 22.6428 25.8146 22.3637 25.7253 22.0907C25.684 21.967 25.7136 21.8921 25.8119 21.8137C26.2306 21.4851 26.6403 21.1482 27.0556 20.8141C27.0913 20.7866 27.1333 20.7646 27.1559 20.713C27.1216 20.6621 27.0673 20.6834 27.0212 20.6834C26.0257 20.68 25.0288 20.68 24.0333 20.68H22.4693C22.4349 20.6834 22.3998 20.68 22.3675 20.6779C22.3187 20.6779 22.296 20.6504 22.3056 20.6009C22.3118 20.5678 22.3203 20.5352 22.3311 20.5033C22.4074 20.2366 22.4871 19.9691 22.5655 19.7058C22.6205 19.5312 22.6205 19.5312 22.7986 19.5312C23.6793 19.5298 24.5565 19.5298 25.4338 19.5298H30.1397C30.2091 19.5291 30.2834 19.5181 30.3666 19.547ZM15.8672 19.5614C15.9421 19.5181 15.9978 19.5305 16.0535 19.5305C17.7248 19.5291 19.3948 19.5291 21.0647 19.5291C21.2895 19.5264 21.2895 19.5291 21.2283 19.7381C21.152 19.9959 21.0757 20.2503 21.0021 20.5054C20.9492 20.6793 20.9492 20.6793 20.7698 20.6827C20.2782 20.6827 19.7825 20.6827 19.2916 20.6848C19.2339 20.6848 19.1699 20.6738 19.1074 20.702C19.1184 20.7756 19.1768 20.7976 19.2167 20.8306C20.4157 21.7896 21.6133 22.748 22.8082 23.7084C22.8488 23.7387 22.89 23.7703 22.9285 23.804C23.0254 23.8865 23.0254 23.8982 22.9203 23.9793C22.703 24.1615 22.4809 24.3375 22.2609 24.5121C22.1537 24.5932 22.1516 24.5967 22.0423 24.5101C21.7096 24.2426 21.3734 23.9717 21.0372 23.7036L16.0116 19.6831C15.9669 19.6481 15.9256 19.6096 15.8672 19.5614Z" fill="#006838"/>
<path id="Vector_5" fill-rule="evenodd" clip-rule="evenodd" d="M18.6374 28.9437L20.297 23.2994C20.3761 23.2952 20.4063 23.3392 20.4469 23.3709C20.6552 23.5359 20.8601 23.7064 21.0712 23.8659C21.1619 23.936 21.1818 24.0027 21.1516 24.1127C20.988 24.6544 20.8292 25.1976 20.6724 25.7421C20.6552 25.8005 20.6257 25.8555 20.6442 25.9311C20.7088 25.9064 20.7556 25.8624 20.8017 25.8252C22.0082 24.86 23.2155 23.8941 24.4207 22.9247C24.6056 22.7762 24.6056 22.7762 24.673 22.9948C24.7465 23.2451 24.818 23.496 24.8916 23.7476C24.9411 23.9243 24.9411 23.9243 24.7967 24.0426C23.408 25.1501 22.033 26.2597 20.6442 27.3652C20.0344 27.8561 19.4267 28.3429 18.8162 28.8324C18.7708 28.8667 18.7282 28.9162 18.6367 28.9437" fill="#006838"/>
<path id="Vector_6" fill-rule="evenodd" clip-rule="evenodd" d="M27.61 28.9369C27.5427 28.9217 27.5069 28.8764 27.4629 28.8427C26.1051 27.7606 24.748 26.675 23.3888 25.5908C23.2045 25.4444 23.2045 25.4636 23.3867 25.3199C23.5827 25.1652 23.7738 25.0064 23.9725 24.8517C24.1079 24.7438 24.11 24.7438 24.2427 24.8497C24.6455 25.1714 25.0498 25.4932 25.4533 25.8136C25.5063 25.8555 25.5585 25.8919 25.6149 25.9352C25.6486 25.8631 25.6135 25.8115 25.5977 25.7606C25.1378 24.1966 24.6778 22.6325 24.2158 21.0705C24.1265 20.7618 24.1127 20.7886 24.4283 20.7886H25.0388C25.2217 20.7886 25.223 20.79 25.2712 20.9612C25.4822 21.6666 25.6898 22.3754 25.8988 23.0794C26.4578 24.9748 27.0174 26.8675 27.575 28.7643C27.5935 28.8166 27.6135 28.8674 27.61 28.9369ZM23.1275 13.7775C23.1798 13.8243 23.1812 13.8765 23.197 13.926C23.7174 15.6908 24.2413 17.4542 24.761 19.2191C24.8208 19.4177 24.8181 19.4177 24.6153 19.4191C24.3712 19.4191 24.1272 19.4191 23.8852 19.4177C23.7318 19.4177 23.7305 19.4157 23.683 19.2679C23.5215 18.7179 23.3558 18.1706 23.1963 17.622C23.1798 17.5711 23.1709 17.5147 23.1296 17.4625C23.0753 17.5209 23.0698 17.5917 23.0533 17.6577C22.5878 19.2252 22.1252 20.7962 21.6645 22.3657C21.5958 22.5912 21.5958 22.5912 21.4191 22.4496C21.2355 22.3046 21.0547 22.1595 20.8773 22.0137C20.7206 21.89 20.7185 21.8872 20.7749 21.7016C21.0499 20.768 21.3228 19.8316 21.5992 18.898L23.0464 13.9762C23.0691 13.9123 23.0753 13.8428 23.1289 13.7775" fill="#006838"/>
</g>
<path id="Vector_7" fill-rule="evenodd" clip-rule="evenodd" d="M20.8673 25.4994C20.8858 25.5289 20.9023 25.5571 20.9188 25.586C20.9037 25.6176 20.8783 25.6362 20.8322 25.6458C20.8266 25.6203 20.8268 25.5939 20.8328 25.5685C20.8389 25.5432 20.8507 25.5195 20.8673 25.4994Z" fill="#C30010"/>
<path id="Vector_8" fill-rule="evenodd" clip-rule="evenodd" d="M25.3496 25.5819C25.364 25.5544 25.3826 25.5282 25.397 25.5014C25.406 25.52 25.4197 25.5379 25.4273 25.5544C25.4349 25.5819 25.4486 25.6162 25.4218 25.63C25.3874 25.6431 25.3668 25.608 25.3496 25.5819Z" fill="#C90010"/>
</g>
</g>
<defs>
<clipPath id="clip0_212_851">
<rect width="44" height="44" fill="white" transform="translate(0.6875)"/>
</clipPath>
</defs>
</svg>
