<svg width="25" height="24" viewBox="0 0 25 24" fill="none" xmlns="http://www.w3.org/2000/svg">
<g id="bxs:up-arrow">
<path id="Vector" d="M21.6879 5L3.6879 5C3.50566 5.00057 3.32703 5.05083 3.17123 5.14538C3.01543 5.23992 2.88836 5.37516 2.80371 5.53655C2.71905 5.69794 2.68002 5.87936 2.6908 6.06128C2.70158 6.24321 2.76178 6.41874 2.8649 6.569L11.8649 19.569C12.2379 20.108 13.1359 20.108 13.5099 19.569L22.5099 6.569C22.6141 6.41906 22.6752 6.24343 22.6865 6.0612C22.6979 5.87898 22.6591 5.69712 22.5744 5.53539C22.4897 5.37366 22.3622 5.23825 22.2059 5.14386C22.0497 5.04947 21.8705 4.99971 21.6879 5Z" fill="#0F172A" fill-opacity="0.5"/>
</g>
</svg>
