<svg width="50" height="51" viewBox="0 0 50 51" fill="none" xmlns="http://www.w3.org/2000/svg">
<g clip-path="url(#clip0_207_65)">
<path d="M39.9898 0.5H9.99746C4.47602 0.5 0 4.97602 0 10.4975V40.4898C0 46.0113 4.47602 50.4873 9.99746 50.4873H39.9898C45.5113 50.4873 49.9873 46.0113 49.9873 40.4898V10.4975C49.9873 4.97602 45.5113 0.5 39.9898 0.5Z" fill="#7609E5"/>
<mask id="mask0_207_65" style="mask-type:luminance" maskUnits="userSpaceOnUse" x="2" y="2" width="46" height="47">
<path d="M25.0159 2.69952L2.19946 25.516L25.0159 48.3325L47.8324 25.516L25.0159 2.69952Z" fill="white"/>
</mask>
<g mask="url(#mask0_207_65)">
<path d="M25.1898 5.93564C25.1422 5.90437 25.0867 5.8873 25.0299 5.88642C24.973 5.88556 24.917 5.90093 24.8686 5.93073C21.6203 7.90267 17.8636 16.2075 17.8622 22.741C17.8575 23.9017 17.954 25.0609 18.1506 26.2049C17.0538 27.1234 16.1207 28.2055 15.6363 29.4385C14.2798 32.9277 16.3569 36.4158 17.3573 37.8094C17.4117 37.8859 17.4831 37.949 17.566 37.9934C17.6488 38.0377 17.7408 38.0623 17.8347 38.065C17.9287 38.068 18.022 38.0488 18.1073 38.0096C18.1927 37.9701 18.2677 37.9115 18.3266 37.8383L21.7883 33.5183C22.0844 33.8088 22.3951 34.0842 22.7191 34.3432C22.9412 34.526 23.2203 34.6254 23.508 34.6238L26.5178 34.6203C26.8055 34.6215 27.0844 34.5223 27.3066 34.3396C27.6289 34.082 27.9381 33.8084 28.2326 33.5195L31.6916 37.8324C31.7506 37.9057 31.8256 37.9641 31.9109 38.0035C31.9963 38.0428 32.0896 38.0617 32.1834 38.059C32.2773 38.056 32.3693 38.0316 32.4521 37.9873C32.535 37.943 32.6064 37.8801 32.6609 37.8035C33.6641 36.4172 35.7461 32.9242 34.3832 29.4412C33.8988 28.208 32.9728 27.1287 31.8838 26.2125C32.0818 25.0668 32.1799 23.906 32.1766 22.7432C32.193 16.2044 28.558 8.04706 25.1898 5.93564ZM25.016 22.1228C24.4176 22.123 23.8326 21.9459 23.335 21.6135C22.8373 21.2812 22.4494 20.8088 22.2205 20.2559C21.9914 19.7031 21.9312 19.0948 22.048 18.5079C22.1646 17.921 22.4529 17.3819 22.876 16.9588C23.299 16.5357 23.8383 16.2475 24.4252 16.1308C25.0121 16.0142 25.6203 16.0741 26.173 16.3032C26.726 16.5323 27.1984 16.9202 27.5307 17.4178C27.8631 17.9154 28.0402 18.5004 28.04 19.0988C28.0404 19.496 27.9623 19.8894 27.8105 20.2564C27.6586 20.6234 27.4359 20.957 27.1551 21.2379C26.8742 21.5187 26.5406 21.7414 26.1736 21.8933C25.8066 22.0451 25.4133 22.1232 25.016 22.1228Z" fill="white"/>
<path d="M27.5039 35.8115C27.5043 36.3004 27.208 36.7875 26.8181 37.3406C25.9392 38.5803 24.0886 38.6004 23.208 37.3392C22.8746 36.8605 22.5203 36.0767 22.5203 35.8094C22.5209 35.7514 22.5033 35.6949 22.4699 35.6476C22.4363 35.6004 22.3888 35.5648 22.3342 35.5461C22.2795 35.5273 22.2201 35.5264 22.1648 35.5432C22.1094 35.56 22.0607 35.5939 22.0258 35.64C21.5058 36.3049 21.2232 37.1244 21.223 37.9683C21.224 40.0646 25.016 44.0545 25.016 44.0545C25.016 44.0545 28.8101 40.0625 28.8092 37.9662C28.8107 37.1213 28.5277 36.3004 28.0056 35.6359C27.8359 35.4332 27.498 35.549 27.5039 35.8115Z" fill="white"/>
</g>
</g>
<defs>
<clipPath id="clip0_207_65">
<rect width="50" height="50" fill="white" transform="translate(0 0.5)"/>
</clipPath>
</defs>
</svg>
