<svg width="256" height="256" viewBox="0 0 256 256" fill="none" xmlns="http://www.w3.org/2000/svg">
<rect width="255.935" height="255.935" rx="51.187" fill="#7609E5"/>
<g clip-path="url(#clip0_721_358)">
<path d="M128.972 27.8305C128.728 27.6704 128.444 27.583 128.153 27.5785C127.862 27.5741 127.575 27.6528 127.327 27.8054C110.696 37.9017 91.4615 80.4227 91.4546 113.874C91.4305 119.817 91.9245 125.752 92.9309 131.609C87.3157 136.312 82.5379 141.852 80.0578 148.165C73.1124 166.03 83.7472 183.889 88.8695 191.024C89.1479 191.416 89.5135 191.739 89.9377 191.966C90.3618 192.193 90.8329 192.319 91.3139 192.333C91.7949 192.348 92.2726 192.25 92.7096 192.049C93.1466 191.847 93.5308 191.547 93.8321 191.172L111.556 169.054C113.072 170.541 114.663 171.951 116.322 173.277C117.459 174.213 118.888 174.722 120.361 174.714L135.771 174.696C137.244 174.702 138.672 174.194 139.81 173.259C141.46 171.94 143.043 170.539 144.551 169.06L162.261 191.142C162.563 191.517 162.947 191.816 163.384 192.018C163.821 192.219 164.299 192.316 164.779 192.302C165.26 192.287 165.731 192.162 166.155 191.935C166.579 191.708 166.945 191.386 167.224 190.994C172.36 183.896 183.02 166.012 176.042 148.179C173.562 141.865 168.821 136.339 163.245 131.648C164.259 125.782 164.761 119.839 164.744 113.885C164.828 80.4067 146.217 38.641 128.972 27.8305ZM128.082 110.709C125.018 110.71 122.023 109.803 119.475 108.101C116.927 106.4 114.941 103.981 113.769 101.15C112.596 98.3201 112.288 95.2055 112.886 92.2006C113.483 89.1956 114.959 86.4354 117.125 84.269C119.291 82.1026 122.052 80.6274 125.057 80.0299C128.062 79.4325 131.176 79.7396 134.006 80.9125C136.837 82.0854 139.256 84.0714 140.957 86.6192C142.659 89.1671 143.566 92.1623 143.565 95.226C143.567 97.2597 143.167 99.2738 142.39 101.153C141.612 103.032 140.472 104.74 139.034 106.178C137.596 107.616 135.888 108.756 134.009 109.534C132.13 110.311 130.116 110.711 128.082 110.709Z" fill="white"/>
<path d="M140.82 180.795C140.822 183.298 139.305 185.792 137.309 188.624C132.809 194.971 123.334 195.074 118.825 188.617C117.118 186.166 115.304 182.153 115.304 180.784C115.307 180.487 115.217 180.198 115.046 179.956C114.874 179.714 114.631 179.532 114.351 179.436C114.071 179.34 113.767 179.335 113.484 179.421C113.2 179.507 112.951 179.681 112.772 179.917C110.11 183.321 108.663 187.517 108.662 191.838C108.667 202.571 128.082 222.999 128.082 222.999C128.082 222.999 147.508 202.56 147.503 191.827C147.511 187.501 146.062 183.298 143.389 179.896C142.52 178.858 140.79 179.451 140.82 180.795Z" fill="white"/>
</g>
<defs>
<clipPath id="clip0_721_358">
<rect width="165.209" height="165.209" fill="white" transform="translate(11.2612 128.082) rotate(-45)"/>
</clipPath>
</defs>
</svg>
